<!-- <svg xmlns="http://www.w3.org/2000/svg" viewBox="0 0 346.92 69.43"> -->
<svg xmlns="http://www.w3.org/2000/svg" viewBox="0 0 69.43 69.43">
  <defs>
    <style>
      .cls-1,
      .cls-2 {
        fill: #000;
      }

      .cls-1 {
        fill-rule: evenodd;
      }
    </style>
  </defs>
  <g id="图层_2" data-name="图层 2">
    <g id="图层_1-2" data-name="图层 1">
      <!-- 
      <path class="cls-1" d="M244.19,23.19c1,.26,5.74.83,5.74,2,0,1.38-2.66,2.79-3.56,3.69-.41.48-.82,1-1.24,1.43-.2.26-4.23,4.78-4.23,6-.08.09.26.4.34.4s2.38-1,2.46-1,.59-.28,1.11-.63l1.69-.79a2.83,2.83,0,0,1,2.44-.55,3.74,3.74,0,0,0,1.32.28,1.6,1.6,0,0,1,.71.57c0,.06,0,.6.09.83a1.9,1.9,0,0,1-.89,1.64,9.1,9.1,0,0,0-1.16.21c-9.55,3.27-13.28,5.4-13.47,5.54s-5.72,4-5.13,3.53a11.44,11.44,0,0,1-1.49.62c.12,0-.23-.1-.34-.15a6.84,6.84,0,0,1-1.08-.41c-.21-.17-.75-.57-.95-.74a9.62,9.62,0,0,1-1.32-1.31,2,2,0,0,1-.19-2.16s.05,0,.05,0h0c.07,0,7.94-2.46,8.05-2.5l.69-.29a.93.93,0,0,1,.05-.1c.27-.36,9.48-12.24,9.57-12.42s.05-.05,0-.05c0-.2,0-.64-.29-.64-.54.13-4.8,2.29-5,2.43l-.8.33c-1.44.69-1.86.17-3.18-.49-.42-.21-2.53-2-2.48-3.3,0-.23.63-.39,1-.42a7.67,7.67,0,0,1,1.47.19,32.35,32.35,0,0,0,4.6-.14,23.67,23.67,0,0,0,2.63-.87,9.59,9.59,0,0,1,1.41-.53,9.89,9.89,0,0,0,1.33-.19" />
      <path class="cls-1" d="M115.15,12.29a5,5,0,0,1,2.43,0,6.87,6.87,0,0,1,2.31,2.59c.09.2.17.4.26.59a3.58,3.58,0,0,1,0,1.66c-.1.28-.07.63-.3.84s-.7.58-.71.58-.5.49-.56.49-.44.32-.36.29a2.52,2.52,0,0,1-2.28.32.8.8,0,0,1-.35-.55,5.17,5.17,0,0,1,0-.61c0-.32.09-.59.09-.67a3.91,3.91,0,0,1,.3-1.09,6.17,6.17,0,0,0-.19-1.41l-1.15-2.09c0-.07-.2-.29-.13-.37" />
      <path class="cls-1" d="M101,16.16c1.41.23,2,.38,2.45,1.7.08.26.31.65.2.89-.61,1.39-1.15,1.51-2.27,2.18a12.76,12.76,0,0,0-1.14.64,6.76,6.76,0,0,1-2.86,1.07,6.84,6.84,0,0,1-1.28-.35,15.38,15.38,0,0,1-2.36-.85l-.38-.17s-.8-.37-.8-.37-.16,0-.15-.18a.42.42,0,0,0,0-.12c0-.22-.06-.38,0-.42.38-.21,1.41-.66,1.78-.81L95,19.1l.7-.21.52-.13.3-.1.43-.19a1.58,1.58,0,0,1,.59-.21l.29-.1.29-.11h0c.24-.14.75-.37.48-.24a4.56,4.56,0,0,0,.54-.25,3,3,0,0,0,.35-.23l.33-.23a4.94,4.94,0,0,0,.49-.3c.42-.33.07,0,.54-.53" />
      <path class="cls-1" d="M90.83,35.44c.48.12.69.23.86.65a3.61,3.61,0,0,1,.16.42c.15.84,1.08,1.55,1.26,2a1.59,1.59,0,0,1,.13.54,2.13,2.13,0,0,1,.05.84,1.22,1.22,0,0,1-.22.57c-.21.28-.21.27-.31.34a4.06,4.06,0,0,1-.39.23,3.59,3.59,0,0,1-1.54.61,1.3,1.3,0,0,1-.48.14c-.75,0-1,.59-1.8.49-1-.14-.55-1.91-.2-2.34s.41-.49.56-.7c0,0,.12-.27.14-.29a1,1,0,0,1,.29-.44c-.06.06.12-.17.24-.37a7.46,7.46,0,0,0,.48-1c.25-.78.1-.32.31-1l.46-.79" />
      <path class="cls-1" d="M101.11,27.6a9.2,9.2,0,0,1-1.92,1c-.64.28-2.17.38-2.31,1.27s3.39,1.34,3.73,1.29a1.53,1.53,0,0,0,1.22-.56c.38-.56-.08-2.76-.72-3m4-2.2v.06c-.37.15-1.39.65-1.49,1s.35.76.41,1.1l.18,2.06c.22.81,1.65,3.06,2.79,2.79.31-.07.32-.42.33-.7a21.28,21.28,0,0,0-1.51-6.07C105.71,25.48,105.4,25.44,105.14,25.4ZM92.41,27.5c.83-.32,1.63-.75,2.48-1.08a9.91,9.91,0,0,1,1.31-.54c.52-.15.86-.24,1.35-.4.75-.26,1.07-.47,1.64-.64.78-.26,1.38-.35,2.4-.75,1.53-.6,2.73-.8,3.43-1.86.45-.66.13-1.68.12-2.47,0-1.43-.23-2.65-.25-4,0-.73,0-1.46,0-2.19-.07-.22-.15-.44-.22-.66l-.24-1.66c-.19-.57-.38-1.15-.56-1.73s-.2-1.34-.31-2-.58-1.41-.43-2.07c.12-.47,1-.86,1.16-.9s1,.23,1.53.34a4.55,4.55,0,0,1,1.75.36,4.6,4.6,0,0,1,1.65,2.34,8,8,0,0,1,.05,1.83,24.47,24.47,0,0,1-.08,3.85l-.54,1.91A19.89,19.89,0,0,0,109,20c.07.4.32.95.83.95.57-.42,2.6-1.42,3.17-.49a2.24,2.24,0,0,1,.15,1.08c0,1.61-1.17,1.39-2.31,1.93-.37.17-1.16.35-1.21.81l.24,1.42a20.61,20.61,0,0,0,2.5,7.87c.43.72.86,1.44,1.3,2.16a7.16,7.16,0,0,0,1,1.31s.07-.08.08-.1c.43-.79.31-2.58.31-3.58,0-.56,0-1.19.1-1.75s.1-1.14.12-1.75a.55.55,0,0,1,.58-.49c.38,0,.72.58.94.83,2,2.39,1.59,5.29,1.22,8.33,0,.89-.06,2-.17,2.86-.06.47,0,.53-.12.94s-.1.8-.12,1.17-.08.85-.15,1.21a3.24,3.24,0,0,1-.23,1.45c-.19.36-.79.62-1.15.8-2.24,1.1-3.14-1.6-3.63-3.08a13.86,13.86,0,0,0-1-2.22c-.41-.86-1.41-2.15-2-3-.32-.52-.59-1.72-1.27-1.94l-.34,0c-.74.22-1.78,1.62-2.28,2.16l-2.34,2.23a15.56,15.56,0,0,1-2.83,2c-.43.22-1,.55-1.37.79-.78.47-1.49,1-2.22,1.57s-1.43.93-2.14,1.4L91.9,48.78l-2.08.93a6.16,6.16,0,0,1-2.63.72c-.41,0-1-.74-1.69-1.1-.23-.11-.77-.23-1-.34A3.24,3.24,0,0,1,83,47.7c-.08-.12-.22-.59.11-.64.9-.11.46-.07,1.23-.36l1.06-.4c1.09-.57,2.5-.64,3.58-1.1s1.92-1,2.91-1.44L93,43.17l.84-.42.55-.29a3.6,3.6,0,0,1,.46-.19s.2-.12.2-.1a7.59,7.59,0,0,0,.79-.44c.7-.39,1.21-.74,1.88-1.18.31-.18,1.65-1.11,1.85-1.25,1.33-1,3.49-1.7,3.58-3.27a9.39,9.39,0,0,0-.45-2.61c-.09-.26-.1-.3-.21-.64,0-.11-.11-.2-.3-.08a9.25,9.25,0,0,0-2.12,2.07,17.05,17.05,0,0,0-.84,1.72,2.93,2.93,0,0,1-3.93.9,2,2,0,0,1-.75-1.7,4.74,4.74,0,0,1,.6-2.11,1.84,1.84,0,0,0,.2-.7c0-.89.39-2.44-1.07-2.32-.66.05-1.41.51-1.86.42-.09,0-.14-.26-.13-.53,0-.08.12-.24.06-.3a.15.15,0,0,0-.13,0,3.08,3.08,0,0,0-.51.57c-.26.35-.28.81-.55,1.16-.49.63-1.36.85-2,1.31-.35.25-.42.68-.79.85a3.54,3.54,0,0,1-1.66.43c-.26,0-.52-.34-.75-.46a3.64,3.64,0,0,1-.66-.33c-.39-.33-2.19-.9-2.66-1.36a1.25,1.25,0,0,1-.36-.9c-.06-.38,1.46-.23,2.54-.7.64-.27,1.06-.52,1.08-.52a4,4,0,0,1,.54-.29c.17-.08.75-.4,1.06-.52" />
      <path class="cls-1" d="M139.45,8.82a2.06,2.06,0,0,1,2.05,1.93c0,.44.42.93.6,1.29s.19.59.29.89a.08.08,0,0,0,0,.05h-.06s.06.06.06,0a4,4,0,0,1-.67,3.49c-.18.23-.53.81-.72,1-.87,1-1.47,3.74-2.11,3.74a3.28,3.28,0,0,1-.78-2.3,14.52,14.52,0,0,1,.34-3c.14-.69.29-1.38.44-2.06a14.29,14.29,0,0,0,.12-4c0-.08,0-.42.06-.42.12-.22.24-.43.36-.66" />
      <path class="cls-1" d="M138.84,24.78c1.66.11,2.75,2.3,3.27,3.61,0,.08.07.32.17.32.53.48,1-.43,1.45-.43,0,0,.17.06.19.07l.41.11s.07.08.06.13-.08.12-.12.18.09.12.06.18a12,12,0,0,0-.54,1.6,9.66,9.66,0,0,1-.55,1.55,3.56,3.56,0,0,0-.29.68,8.37,8.37,0,0,1-.58,1.15c-.49,1.27-.72,4.13-1.17,5.28a39.73,39.73,0,0,0-1.28,5,10.31,10.31,0,0,1-.2,1.11c-.09.39-.23.78-.29,1.19-.09.63,0,1.29-.08,1.93,0,.07,0,.36,0,.44-.51,2.75-1.5,3-2.78,3a1.07,1.07,0,0,1-.56-.21,3.36,3.36,0,0,1-.55-.52,10.05,10.05,0,0,1-1.33-1.93,3.3,3.3,0,0,1-.29-.84c0-.57.1-.44.23-1.2,0-.06,0-.43,0-.49.06-.36.72-1,.72-1.39s.74-1.62.76-1.7.07-.28.09-.34c.14-.72.89-5.93,1.18-8.08a10.21,10.21,0,0,1,.81-2.06,2.54,2.54,0,0,0,.1-.37c.08-.52.16-1,.26-1.56a.32.32,0,0,1,.06-.18s.12-.34.15-.38.07-.78.09-.87a14.48,14.48,0,0,0-.05-3.94c0-.1,0-.54.05-.54s.48-.53.48-.42l.12-.06v-.07" />
      <path class="cls-1" d="M158.51,40.29l1,.13c.64.19,1.28.72,2,.72.07,0,1.29,1.92,1.9,2.85,0,0,.48,1,.64,1.42a1.82,1.82,0,0,1,.24,1,13.36,13.36,0,0,1-.49,1.27c-.17.39-.7,1.08-1.2,1.08l-1-.18-1.2-.24-.43-.06c-.26.14-2.41.42-2.65.54l-.24-.3v-.06a2,2,0,0,0,.18-.36c.08-.12.17-.42,1.39-1.27.56-.39,1-.63,1.14-2.42a4.84,4.84,0,0,0-.66-1.86l-.18-.83c-.11-.5-.48-.66-.48-1.4" />
      <path class="cls-1" d="M153.38,21.84c-.63.21-2.45,1.76-2.35,2,0,0,3,1.47,3.7.25.52-.86-.55-2.1-1.41-2.24m2.35,5.55s-.3.06-.3.08c-.7.25-2.11.16-2.11,1.25,0,.26,0,.65.23.82s1.53-.14,2.6-.89c0,0,0-.07.06-.12s.09-.36.13-.54C156.08,27.7,156,27.53,155.67,27.38Zm-1.08,3.74s-.05.05-.06.06c-1.87.9-2.3.78-2.3.78s.07.81.07,1.15a10,10,0,0,0,1.45-.36l.57-.38a2.37,2.37,0,0,0,.73-.9s.14-.33.14-.35Zm6.94-23.47c2.25.61,2.53,1.83,2.53,4.11-.42.59-.4,1.42-.8,2-1,1.48-4.09,3.37-4.09,5.2a2.13,2.13,0,0,0-.06,1.47l.61.46s.05-.06,0-.06c.26-.08.52-.15.78-.24a3,3,0,0,1,1.47.57,3.18,3.18,0,0,1,1,.79c.52.9-.53,2.37-1,3s-1.57.44-1.83,1c-.38.86.67,1.62.67,2.39.86,2.41-.7,3.66-1.66,5.45l-.54.93a3.38,3.38,0,0,0-.5,1.11c-.12,1.16,1.31.35,1.31.35s.85-.65.85-1c.05-.16,0-1.32.06-1.81a5,5,0,0,1,.18-.66,4.83,4.83,0,0,0,1.09.27c2.32,0,2.73,0,3.63,1a1.25,1.25,0,0,1,0,.75,2.71,2.71,0,0,1-1.55,1.84l-.44.33-.74.82a6.3,6.3,0,0,1-1.4.9,6.41,6.41,0,0,1-1.9.48c-.06,0-.68.21-1,.33a2.5,2.5,0,0,0-1.93,2.3c0,.1-.87,1.32-.85,1.32a16.29,16.29,0,0,1-3.07,3.3,2.53,2.53,0,0,1-1.33.27c-.3,0-.48-.25-.64-.62A12.19,12.19,0,0,1,152,43.85a2.31,2.31,0,0,0,.49-1,6.83,6.83,0,0,0,.36-1.08c-.11-1.06-1.08-1.31-2.05-1.31l-.55,0s-.5-.57-.42-.57c0-.38,0-.68-.06-1.06a2.37,2.37,0,0,1,1.09-.61c.07,0,.12.09.18.13.4-.08,2.24-.2,2.77-1.51a1.34,1.34,0,0,0-.84-2c-1.79-.27-.64,1-2.14,1.61a3.83,3.83,0,0,1-1.21.31c-.56.07-3.29-1.63-2-3.51l1.28-1.49a3.85,3.85,0,0,0,.66-1.31,7.07,7.07,0,0,0,.24-.74,7.82,7.82,0,0,1,.94-3.51s-.39-1.85-1.24-1.8a4.66,4.66,0,0,1-1.13.13,6,6,0,0,1-2.11-1.23,1.59,1.59,0,0,1-.38-.53c.27-1.71,2.66-.27,6.64-4a.45.45,0,0,0,.06-.12c.06-.14.12-.28.17-.42a12.12,12.12,0,0,1,.25-1.21V17l.06-.42c0-.08,0-.3.12-.3V15l.24-1c0-.06.24-.36.24-.25v-.11c1.2-.23,1.91,1.41,2.21,2.3l.08.05h.18V16a2,2,0,0,0,.27-1.72l-.27-.39h.06l-.06-.91a2.43,2.43,0,0,1-.23-1.46c0-.07,0-.17.12-.17v-.06H156a3.44,3.44,0,0,1,1.6.75c.43.5.24,1.91,1.12,1.91v.06h.06c0-.08,0-.06.06-.06.08-.19,1.44-1.21,1.09-1.21a28.15,28.15,0,0,0,.75-4c0-.08.12-.41,0-.41A3.06,3.06,0,0,1,161.53,7.65Z" />
      <path class="cls-1" d="M188.31,19.61a12.8,12.8,0,0,1,2.47.67c.12.12,1.63,1.15,1.88,1.69s-.32,1.31-.32,1.31a34.2,34.2,0,0,0-1.7,6.41,11.78,11.78,0,0,0,.2,2c1.78.89-.06,1.62-.06,2.71,0,.31-.78,1.5-.18,1.5,0-.06.17-.45.21-.51l1.94-2.26a5.88,5.88,0,0,0,1,.18,6.91,6.91,0,0,1-.26,1.06,2.66,2.66,0,0,0-.29.44c-.27.61-.62,1.25-.82,1.6a22.3,22.3,0,0,0-.91,2.23l-.42.65a2.86,2.86,0,0,1-.12.27s-.89,2.82-.91,2.85-.32,2.59-.36,3.22c0,.41-.27.58-.42.87-1,2-2.88.77-5,1-.07,0-1.54-.16-1.54-.92l.37-.75s1.41-2,1.43-2.14c.24-.36,1.38-2.39,1.59-2.91s.41-1.53.54-2a7,7,0,0,0,.27-1.23,4.4,4.4,0,0,0-1.28.6c-1.25.83-1.91.54-3-.34-.23-.17-.83-.51-.83-.86-1-1,2.24-2,3-2.65a11.54,11.54,0,0,0,2.19-1.8s-.09.15.07-.18c.07-.13.49-6.13.49-7,0-.08,0-.18-.07-.18v-.06h-.06A15.21,15.21,0,0,0,184.84,27c-1.23.88-3-.22-4-.75l-1.1-.7-.18-.72c0-.08.37-.84.66-.84,0,0,2.75-1.22,3.25-1.5.23-.21,3.14-2,3.16-2a13.63,13.63,0,0,1,1.7-.8" />
      <path class="cls-1" d="M203.1,43.58v.06" /> 
      <path class="cls-1" d="M206.46,16.61a16.51,16.51,0,0,0-2,1.44l-.85.55a1.56,1.56,0,0,0-.21.47l0,.36.72,1.33c0,.45,0,.92-.06,1.38a7.06,7.06,0,0,0-.3,2.22c.24-.05,1-.76,1-.6a14,14,0,0,1,1-3.2c.29-.6.86-1.76,1.6-3.12,0-.06.15-.77,0-.77l-.78-.06m2.59-4.27,2.39.05c1,.18,4.07,1.56,3.93,3.09a2.07,2.07,0,0,1-.34,1.09,10.2,10.2,0,0,1-1.9,1.31l-.82.91-1,.77A18.73,18.73,0,0,0,209,23.41a14.32,14.32,0,0,1-1.25,2.76c0,.42-.12,1.48-.15,1.89a2,2,0,0,1-.65.78,10.9,10.9,0,0,1-1.63,1,9.31,9.31,0,0,0-1.2.89c-.26.15-.51.41-.76.56a6.18,6.18,0,0,0-.69,3.16c0,.11,0,.5.09.5a7,7,0,0,0,1.8,0c1.12-.32,2.25,1.58,2.38,2.19.17.81-.92,1.73-1.21,2-.89.79-1.93,1.42-2.31,2.64a17.93,17.93,0,0,0-.3,1.85l.54.36a18.17,18.17,0,0,0,2.46-.36l1-.19,2.34.05a2,2,0,0,1,.72.19c.24.11.43.45.55.55l1.69,1.54c.33.51.77.21.77.5-.39,1.71-2.7,1.15-4,1.15l-1.89.06a12.81,12.81,0,0,1-1.57.23,8.77,8.77,0,0,0-1.6.3c-2.16.56-4.88,1.4-5.92.35A5,5,0,0,1,197.6,47c-.29-.5-.81-1-.8-1.65s.65-1,.65-1.5c.08,0,.06,0,.06-.06.73-.64,1.26-2.38.59-3.29-.4-.55-1.15-.7-1.2-1.5s1.37-1.4,1.45-1.4.24-1.68.52-3.16c0,.08-.31-1-.22-1-.89-.68-.48-1.56-.48-2.46,0-.08.18-.36.72-1.56a2,2,0,0,0,.06-.6l.18-.36V27.43l-.6-.43v.13c-.06.27-.11.55-.17.82a12.84,12.84,0,0,0-.6,1.46c-.42.43-.68.54-.85.48-.73-.23-1.14-1.43-1.61-2.19A10.57,10.57,0,0,1,194.22,26a6.58,6.58,0,0,1-.14-1.95c0-.05.12-2.14.09-3.13A6.26,6.26,0,0,1,194,19a.59.59,0,0,1,.5-.39c.7-.09.69.55,1,.93l.57.55c.76,1,2.5,4.13,2.5,5.39a.49.49,0,0,1,.24.18,6.48,6.48,0,0,0,2.46-2.47,23.62,23.62,0,0,0,.79-2.45V20.4c0-.11-.06-.52-.06-.55H202l-.06,0-1.2.66a5.56,5.56,0,0,1-2.77.41c-.07,0-.24-.05-.24,0-.69-1.29.31-1.48,2.76-3.14,1.12-.76,1.68-1.14,2.05-1.43s4.47-2.78,5.14-3.24C208.14,12.89,208.37,12.76,209.05,12.34Z" />
      <path class="cls-1" d="M329.72,13.74c-.06.25-.35,1.61-.33,1.61-.38.65.41,1.49,1.12,1.49v-.06a5.58,5.58,0,0,1,.66-.93v-.07c-.31-.86-.29-1.83-1.45-2M328.4,2.45l1.78.43A6.82,6.82,0,0,1,331.68,4l1.2.59c1,.55.55,1.6.08,2.28S331.5,8,331.5,8.71a4.48,4.48,0,0,0,2.06-.84,27.72,27.72,0,0,1,3.35-1.48L338,6s.07-.06.07,0c1.48-.85,1.85-1.57,3.49-1.36,4.25.54,4.62,1.81,5.08,2.87a10.44,10.44,0,0,1,.06,4.24c-.14.41-.94.72-1.31.89-.89.42-3.28,1.74-3.46,1.83a9.65,9.65,0,0,0-1.46.8c-.61.44-2.86,2.18-2.45,2.95a14.19,14.19,0,0,0,1.77,1.55c.23.18,1.41,1.37,1.25,1.37.34,2.07-2.53,2.22-3.74,3.9-.33.45-2,1.47-1.1,1.91a7.62,7.62,0,0,0,2.46.17A5.58,5.58,0,0,1,342,28.7c.37.3.89.22,1.09.75a1.78,1.78,0,0,1,0,1.07l-.21.34c-.1.18-4.76,3.37-6.15,2.58a1,1,0,0,1-.25-.28,18,18,0,0,0-.27-2.17,1.85,1.85,0,0,0-1.08-.55,1.69,1.69,0,0,0-.56.11,2.44,2.44,0,0,0-1.11,2.64c.1.19.74,9.09.86,9.7.06.3.73,3.06.68,3.14.16.58.29,1,.4,1.57-.07.27-.14.55-.2.83-.21,1-.16,1.84-1.16,2.41l-.53.25a10.1,10.1,0,0,1-1.43.3c-2.31-.12-4-1.07-6.14-1.5-.83-.16-2.58-.5-3-1.1a2.71,2.71,0,0,1,.14-.62l1.38.19a4.24,4.24,0,0,0,.86.12,24.33,24.33,0,0,0,3.76-.65s1.17-1.43,1.19-2A74.33,74.33,0,0,0,329.64,34a3.49,3.49,0,0,0-.51-.76H329l-1,.62c-2.75,1.62-6.14,5.25-7.47,6.69-.77.73-1.84,2.22-3.42,2.51-1.31.24-2.71-.45-3.76-.89a34.4,34.4,0,0,0-3.23-1.86c-.52-.21-.47-1.26-.47-1.24a2.5,2.5,0,0,1,.69-.54c.81-.31,2.92-.69,3.57-1,1.67-.68,6.5-3.11,6.83-3.27,0,0,9.15-4.85,9.17-4.85a8.56,8.56,0,0,0,.92-1.36,20.58,20.58,0,0,0,1.72-3.54c.06-.37.37-1.47-.4-1.36-1.35.19-2.13,1.12-3.51,1.77a30.4,30.4,0,0,1-5.2,2.91c-.5.19-1.06-.17-1.59-.25-.06,0-1.67-.37-1.82-1a12,12,0,0,1,1.5-1.42c.14,0,4.65-1.81,4.65-1.86s4.65-2.28,4.65-2.36c.66-.31,2.25-1,3.37-1.62l1-1.41c1.05-1.56,3.19-5.47,3.39-5.66s.18-.37.26-.56.39-.53.4-.62.25-1.24-.19-1.75a2,2,0,0,0-1.19-.46,17.92,17.92,0,0,0-4.52,1.82,1.17,1.17,0,0,0-.44.89v.06s1.53,2.68,1.6,3.78l-.18.86c0,.09-.12.45,0,.45l-1.16,1.45c-.32.34-1.62,1.08-1.62,1.46l-1.31.06c-1.42.48-4-.31-4.71-1.63-.24-.49-.44-2.48,1.14-5.81,0-.08.07,0,.07-.06h-.07v.06a5.76,5.76,0,0,0-.85,0l-.46.31L324.1,13.8l-1,.73c0,.15-.06.29-.1.44.17.58.33,1.16.49,1.75a1,1,0,0,1,.4.8c.14.19.29.37.43.55.55.78,1.06,2.21.34,3.14-.06.07-.06.22-.18.22-1.94,1.05-3.38-1.95-4.91-1.37-.08,0-.24.09-.24.19l.27.68c-.2.75.45,2.24-.73,2.24-1.16.25-1.51-.85-2-1.52-.16-.2-.32-.4-.49-.59s-.85-1.63-1.05-1.92a1.33,1.33,0,0,0-.14-.19l-.84-1.52a7.92,7.92,0,0,0-.72-1.6c0-.05-.28-.43-.35-.52-1-1.12-2.9-3.12-.53-3.12.24.1,1.69.77,2,.94.45.28,2.16,1.85,2.73,1.85,0,0,.11,0,.11,0a2.48,2.48,0,0,0,.18-.39s-.33-.73-.5-1-.53-.87-.71-1.14a15.78,15.78,0,0,0-3.16-3.66c-.61-.56-1.89-1.67-1.25-2.57,0,0,.11-.2.11-.08h.07c.36-.17,4.46,2,4.48,1.93s1.45,1,1.45,1a4.54,4.54,0,0,1,.67.65,8.85,8.85,0,0,0,1.21,1.53c.24.21.45.55.69.75s.26.43.58.65a1.46,1.46,0,0,0,.76.24,2.68,2.68,0,0,1,.89-1.06,6.45,6.45,0,0,0,1.31-1.37c0-.06.2-.55.1-.55l-1.08-.77c-.46-.31-1.71-.51-1.84-1.23a7.06,7.06,0,0,1,.15-1.16c.09,0,1.18.12,1.72.12.19-.06,2.59.37,3.23-.24a5.84,5.84,0,0,0,1-1.71,8.69,8.69,0,0,0,.11-1.59C327.92,3.09,328.2,2.67,328.4,2.45Z" />
      <path class="cls-1" d="M279.62,10.33a3.09,3.09,0,0,1,1.41.27c.51.36,1.58.93,1.85,1.17.74.66,3.39,2.85,3.77,4,0,.08.29,1,.12,1.23-.53.85-.83,4.62-.95,5-.42,1.43-.58,3.14-.3,3.52a1.49,1.49,0,0,0,.59.34c.12-.13,4.12-3,4.12-3,.23,0,1.7.12,1.94.12l.46-.07c1-.41,1.72,1.11,2.27,1.11,0,.36.09.74.13,1.1-.38.16-5.66,2.69-6.06,3a28.21,28.21,0,0,1-4.21,2.84c-.71.4-1.39,4-1.77,4.81-2.22,4.7-3.65,8.78-7.33,10.41-.63.28-1.82.93-2.29,1.11a22.48,22.48,0,0,1-2.86,1,20.42,20.42,0,0,1-2.15.35,32.69,32.69,0,0,1-3.34-.27s-.49-.16-.22-.53.72-.21,2-.91l1.73-.84c.15-.07.58-.41.68-.46a18.53,18.53,0,0,0,7.35-6.7,26.08,26.08,0,0,0,1.17-2.53s-.07-.07,0-.07v-.06h-.07a2,2,0,0,0-.88.29c-.5.31-4.34,3.41-4.06,3.28a4,4,0,0,1-4,.13s0,0-.07,0a15.9,15.9,0,0,0-4.22-2.79c-.18-.08-.13-.61-.2-.91a2,2,0,0,1,1.37-.59c.06,0,4.28-1.31,4.28-1.33.83-.16,9.52-4.2,9.72-5.68a2.82,2.82,0,0,1,0-.34c1.26-7.09.22-13.08-.48-14.82-.23-.59.48-3,.54-3.19" />
      <path class="cls-1" d="M285.15,32.83a3.28,3.28,0,0,1,2,.92s.32.55.37.6c.34.5,4,4.84,5.48,5.83a18,18,0,0,0,8.21,2.36c.25,0,.84.5.84.5a2.19,2.19,0,0,1-.83,1.05c-.61.33-4,1.55-4.92,1.86-1.23.42-3,1.58-3.8,1.32A5.12,5.12,0,0,1,289.89,45c-.73-1.14-5.24-10.62-5.24-10.72-.19-.41.28-1.14.5-1.4" />
      <path class="cls-2" d="M94.73,60.72v.22a1,1,0,0,0-.39.13,1,1,0,0,0-.28.34c0,.05-.15.37-.39,1l-2.6,6.85h-.24l-2.06-5.35-2.26,5.35h-.23l-2.73-6.78A7,7,0,0,0,83,61.2a.74.74,0,0,0-.55-.26v-.22H86v.22a1,1,0,0,0-.58.14.34.34,0,0,0-.14.29,3.57,3.57,0,0,0,.3,1l1.63,4,1.3-3.15-.34-.88a6.52,6.52,0,0,0-.44-1,.94.94,0,0,0-.35-.34,1.27,1.27,0,0,0-.58-.11v-.22h4v.22a2.6,2.6,0,0,0-.61.07.43.43,0,0,0-.2.15.34.34,0,0,0-.07.22,4.13,4.13,0,0,0,.27.87l1.52,3.93,1.35-3.56a7.79,7.79,0,0,0,.26-.75,1.33,1.33,0,0,0,.05-.38.48.48,0,0,0-.17-.39,1.07,1.07,0,0,0-.65-.16v-.22Z" />
      <path class="cls-2" d="M95.45,60.72h4.29v.22h-.22a1.61,1.61,0,0,0-.66.1.59.59,0,0,0-.26.28,3.17,3.17,0,0,0-.07.89v4.07a4.29,4.29,0,0,0,.16,1.48,1.46,1.46,0,0,0,.56.6,1.81,1.81,0,0,0,1,.24,2.1,2.1,0,0,0,1.15-.31,1.8,1.8,0,0,0,.71-.83,5,5,0,0,0,.24-1.86V62.21a1.88,1.88,0,0,0-.12-.79.76.76,0,0,0-.29-.34,1.84,1.84,0,0,0-.78-.14v-.22H104v.22h-.17a1.13,1.13,0,0,0-.58.14.82.82,0,0,0-.34.43,2.16,2.16,0,0,0-.08.7v3.16a8.15,8.15,0,0,1-.19,2.11,2.34,2.34,0,0,1-.94,1.19,3.36,3.36,0,0,1-2,.55A3.94,3.94,0,0,1,98,68.93a2.44,2.44,0,0,1-1.13-1,3.5,3.5,0,0,1-.33-1.65V62.21a3,3,0,0,0-.08-.89.58.58,0,0,0-.28-.28,1.71,1.71,0,0,0-.72-.1Z" />
      <path class="cls-2" d="M108,65V67.6a2.91,2.91,0,0,0,.07.8.63.63,0,0,0,.28.28,1.07,1.07,0,0,0,.55.12h.28V69h-4.35V68.8h.28a1.19,1.19,0,0,0,.58-.13.58.58,0,0,0,.25-.3,2.75,2.75,0,0,0,.06-.77V62.14a3.08,3.08,0,0,0-.06-.8.68.68,0,0,0-.28-.28,1.07,1.07,0,0,0-.55-.12h-.28v-.22h4.35v.22h-.28a1.21,1.21,0,0,0-.58.13.58.58,0,0,0-.25.3,2.27,2.27,0,0,0-.07.77v2.35h2.94V62.14a2.91,2.91,0,0,0-.07-.8.68.68,0,0,0-.28-.28,1.09,1.09,0,0,0-.55-.12h-.27v-.22h4.33v.22h-.27a1.19,1.19,0,0,0-.58.13.63.63,0,0,0-.25.3,2.59,2.59,0,0,0-.07.77V67.6a2.91,2.91,0,0,0,.07.8.63.63,0,0,0,.28.28,1.09,1.09,0,0,0,.55.12h.27V69h-4.33V68.8H110a1.21,1.21,0,0,0,.58-.13.63.63,0,0,0,.25-.3,2.59,2.59,0,0,0,.07-.77V65Z" />
      <path class="cls-2" d="M119.82,66.66h-2.93l-.35.81a1.87,1.87,0,0,0-.17.67.54.54,0,0,0,.28.51,2.39,2.39,0,0,0,.81.15V69H114.7V68.8a1.28,1.28,0,0,0,.74-.37,5,5,0,0,0,.71-1.26l3-6.62h.12l3,6.81a4.2,4.2,0,0,0,.71,1.22,1,1,0,0,0,.58.22V69h-4V68.8h.17a1.25,1.25,0,0,0,.68-.14.32.32,0,0,0,.14-.28,1,1,0,0,0,0-.23s-.07-.19-.19-.45Zm-.2-.45-1.24-2.86-1.28,2.86Z" />
      <path class="cls-2" d="M127.1,60.72l4.1,5.15V62.3a1.7,1.7,0,0,0-.21-1,1.22,1.22,0,0,0-1-.35v-.22h2.74v.22a2.17,2.17,0,0,0-.7.18.73.73,0,0,0-.29.35,2.59,2.59,0,0,0-.1.83v6.91h-.2l-5.62-6.91v5.28a1.17,1.17,0,0,0,.33,1,1.21,1.21,0,0,0,.75.25h.19V69h-2.94V68.8a1.38,1.38,0,0,0,1-.28,1.34,1.34,0,0,0,.27-.94V61.72l-.18-.23a1.58,1.58,0,0,0-.46-.43,1.44,1.44,0,0,0-.58-.12v-.22Z" />
      <path class="cls-2" d="M140.55,60.72h4.28v.22h-.21a1.61,1.61,0,0,0-.66.1.59.59,0,0,0-.26.28,3,3,0,0,0-.08.89v4.07a4.22,4.22,0,0,0,.17,1.48,1.43,1.43,0,0,0,.55.6,1.85,1.85,0,0,0,1,.24,2.12,2.12,0,0,0,1.15-.31,1.92,1.92,0,0,0,.71-.83,5.1,5.1,0,0,0,.23-1.86V62.21a2.1,2.1,0,0,0-.11-.79.78.78,0,0,0-.3-.34,1.76,1.76,0,0,0-.77-.14v-.22h2.87v.22h-.17a1.11,1.11,0,0,0-.58.14.82.82,0,0,0-.34.43,2.16,2.16,0,0,0-.08.7v3.16a8.63,8.63,0,0,1-.19,2.11,2.4,2.4,0,0,1-.94,1.19,3.36,3.36,0,0,1-2,.55,3.91,3.91,0,0,1-1.67-.29,2.39,2.39,0,0,1-1.13-1,3.49,3.49,0,0,1-.34-1.65V62.21a2.66,2.66,0,0,0-.08-.89.56.56,0,0,0-.27-.28,1.71,1.71,0,0,0-.72-.1Z" />
      <path class="cls-2" d="M152.75,60.72l4.1,5.15V62.3a1.7,1.7,0,0,0-.21-1,1.22,1.22,0,0,0-1-.35v-.22h2.74v.22a2.17,2.17,0,0,0-.7.18.73.73,0,0,0-.29.35,2.59,2.59,0,0,0-.1.83v6.91h-.21l-5.61-6.91v5.28a1.2,1.2,0,0,0,.32,1,1.26,1.26,0,0,0,.76.25h.19V69H149.8V68.8a1.39,1.39,0,0,0,1-.28,1.34,1.34,0,0,0,.27-.94V61.72l-.18-.23a1.58,1.58,0,0,0-.46-.43,1.45,1.45,0,0,0-.59-.12v-.22Z" />
      <path class="cls-2" d="M163.6,68.8V69h-4.35V68.8h.28a1.21,1.21,0,0,0,.58-.13.58.58,0,0,0,.25-.3,2.75,2.75,0,0,0,.06-.77V62.14a3.08,3.08,0,0,0-.06-.8.68.68,0,0,0-.28-.28,1.07,1.07,0,0,0-.55-.12h-.28v-.22h4.35v.22h-.28a1.19,1.19,0,0,0-.58.13.58.58,0,0,0-.25.3,2.27,2.27,0,0,0-.07.77V67.6a2.55,2.55,0,0,0,.07.8.63.63,0,0,0,.28.28,1.07,1.07,0,0,0,.55.12Z" />
      <path class="cls-2" d="M173.13,60.72v.22a1.35,1.35,0,0,0-.81.49,7.27,7.27,0,0,0-.77,1.44l-2.86,6.34h-.2l-2.85-6.6a7.68,7.68,0,0,0-.69-1.4,1,1,0,0,0-.65-.27v-.22h4v.22h-.14a1.36,1.36,0,0,0-.73.14.29.29,0,0,0-.14.27.69.69,0,0,0,0,.26c0,.1.14.37.33.8l1.77,4.14,1.64-3.68q.28-.67.36-.9a1.63,1.63,0,0,0,.07-.38.54.54,0,0,0-.1-.33.64.64,0,0,0-.29-.21,1.9,1.9,0,0,0-.7-.11v-.22Z" />
      <path class="cls-2" d="M177,61.2v3.38h.17a1.32,1.32,0,0,0,1.14-.5,3,3,0,0,0,.45-1.46H179V67h-.24a3.22,3.22,0,0,0-.3-1.17,1.45,1.45,0,0,0-.55-.61A2.17,2.17,0,0,0,177,65v2.34a3.37,3.37,0,0,0,.06.84.52.52,0,0,0,.22.25,1,1,0,0,0,.51.1h.5a2.68,2.68,0,0,0,2.87-2.19h.23L181,69h-7.18V68.8h.28a1.21,1.21,0,0,0,.58-.13.58.58,0,0,0,.25-.3,2.75,2.75,0,0,0,.06-.77V62.14a4.32,4.32,0,0,0,0-.69.53.53,0,0,0-.22-.33,1,1,0,0,0-.64-.18h-.28v-.22h7v2.45h-.24a2.93,2.93,0,0,0-.5-1.29,1.79,1.79,0,0,0-.91-.57,4.55,4.55,0,0,0-1.28-.11Z" />
      <path class="cls-2" d="M185.59,65.24v2.33a2.38,2.38,0,0,0,.08.84.57.57,0,0,0,.29.28,1.94,1.94,0,0,0,.78.11V69h-4.25V68.8a1.94,1.94,0,0,0,.78-.11.66.66,0,0,0,.29-.28,2.66,2.66,0,0,0,.08-.84V62.18a2.74,2.74,0,0,0-.08-.85.63.63,0,0,0-.3-.28,1.85,1.85,0,0,0-.77-.11v-.22h3.86a8.31,8.31,0,0,1,2.2.21,2.14,2.14,0,0,1,1.14.76,2.06,2.06,0,0,1,.44,1.32,2,2,0,0,1-.66,1.52,2.83,2.83,0,0,1-1.18.57l2,2.81a4.48,4.48,0,0,0,.55.68,1.08,1.08,0,0,0,.58.21V69h-2.61l-2.68-3.78Zm0-4.08V64.8h.35a4.05,4.05,0,0,0,1.27-.15,1.26,1.26,0,0,0,.66-.57,2,2,0,0,0,.25-1.06,1.63,1.63,0,0,0-1.88-1.86Z" />
      <path class="cls-2" d="M197.52,60.53l.07,2.77h-.25a2.8,2.8,0,0,0-.88-1.68A2.18,2.18,0,0,0,195,61a1.41,1.41,0,0,0-1,.33,1,1,0,0,0-.36.77.9.9,0,0,0,.13.49,1.91,1.91,0,0,0,.57.57q.28.2,1.32.72a5.67,5.67,0,0,1,2,1.35,2.25,2.25,0,0,1,.5,1.46,2.36,2.36,0,0,1-.81,1.79,2.92,2.92,0,0,1-2.06.75,3.5,3.5,0,0,1-.74-.08,5.09,5.09,0,0,1-.88-.3,1.29,1.29,0,0,0-.48-.12.61.61,0,0,0-.34.12.92.92,0,0,0-.29.37h-.22V66.08h.22a3.65,3.65,0,0,0,1,2,2.45,2.45,0,0,0,1.66.69,1.53,1.53,0,0,0,1.09-.37,1.16,1.16,0,0,0,.41-.87,1.07,1.07,0,0,0-.16-.57,1.76,1.76,0,0,0-.47-.53,7.17,7.17,0,0,0-1.13-.64,9.93,9.93,0,0,1-1.63-1,2.86,2.86,0,0,1-.76-.88,2.14,2.14,0,0,1-.27-1.06,2.25,2.25,0,0,1,.73-1.69,2.54,2.54,0,0,1,1.84-.7,3.33,3.33,0,0,1,.78.09,4.27,4.27,0,0,1,.71.28,1.62,1.62,0,0,0,.58.2.36.36,0,0,0,.25-.1,1.29,1.29,0,0,0,.17-.47Z" />
      <path class="cls-2" d="M203.51,68.8V69h-4.34V68.8h.28a1.21,1.21,0,0,0,.58-.13.57.57,0,0,0,.24-.3,2.27,2.27,0,0,0,.07-.77V62.14a2.55,2.55,0,0,0-.07-.8.6.6,0,0,0-.27-.28,1.09,1.09,0,0,0-.55-.12h-.28v-.22h4.34v.22h-.27a1.19,1.19,0,0,0-.58.13.58.58,0,0,0-.25.3,2.27,2.27,0,0,0-.07.77V67.6a2.55,2.55,0,0,0,.07.8.66.66,0,0,0,.27.28,1.11,1.11,0,0,0,.56.12Z" />
      <path class="cls-2" d="M212,60.72V63h-.22a3.44,3.44,0,0,0-.44-1.12,1.52,1.52,0,0,0-.65-.54,2,2,0,0,0-.82-.11h-.61v6.4a2.55,2.55,0,0,0,.07.8.6.6,0,0,0,.27.28,1.13,1.13,0,0,0,.56.12h.28V69h-4.35V68.8h.27a1.23,1.23,0,0,0,.59-.13.63.63,0,0,0,.25-.3,2.75,2.75,0,0,0,.06-.77V61.2h-.6a1.7,1.7,0,0,0-1.21.35A2.35,2.35,0,0,0,204.8,63h-.23V60.72Z" />
      <path class="cls-2" d="M221.72,60.72v.22a1.22,1.22,0,0,0-.63.24,6,6,0,0,0-1,1.41l-1.8,3v2a3,3,0,0,0,.06.8.66.66,0,0,0,.27.28,1,1,0,0,0,.53.12h.47V69H215V68.8h.44a1.16,1.16,0,0,0,.58-.13.58.58,0,0,0,.25-.3,2.27,2.27,0,0,0,.07-.77V65.94l-1.95-3.56a4.92,4.92,0,0,0-.83-1.24,1,1,0,0,0-.63-.2v-.22h4v.22h-.18a.86.86,0,0,0-.5.11.28.28,0,0,0-.15.22,4,4,0,0,0,.49,1.11l1.5,2.75,1.5-2.51a3.36,3.36,0,0,0,.56-1.22.33.33,0,0,0-.16-.27,1.55,1.55,0,0,0-.77-.19v-.22Z" />
      <path class="cls-2" d="M233.45,60.6a4.12,4.12,0,0,1,4.47,4.24,4.42,4.42,0,0,1-.93,2.78,4.11,4.11,0,0,1-3.46,1.59,4.22,4.22,0,0,1-3.47-1.51,4.44,4.44,0,0,1-1-2.85,4.14,4.14,0,0,1,1.26-3.09A4,4,0,0,1,233.45,60.6Zm.08.39a1.88,1.88,0,0,0-1.74,1.17,6.23,6.23,0,0,0-.48,2.74,5.28,5.28,0,0,0,.75,3.14,1.67,1.67,0,0,0,1.45.71,1.79,1.79,0,0,0,1.06-.3,2.51,2.51,0,0,0,.84-1.25,7,7,0,0,0,.3-2.25,7.6,7.6,0,0,0-.31-2.47,2.33,2.33,0,0,0-.78-1.15A1.88,1.88,0,0,0,233.53,61Z" />
      <path class="cls-2" d="M242.13,61.2v3.41h.24a2.09,2.09,0,0,0,.9-.17,1.37,1.37,0,0,0,.59-.56,2.42,2.42,0,0,0,.31-1.05h.22V67h-.22a2.07,2.07,0,0,0-.63-1.56,2,2,0,0,0-1.17-.38h-.24V67.6a2.55,2.55,0,0,0,.07.8.66.66,0,0,0,.27.28,1.13,1.13,0,0,0,.56.12h.27V69H239V68.8h.28a1.21,1.21,0,0,0,.58-.13.57.57,0,0,0,.24-.3,2.27,2.27,0,0,0,.07-.77V62.14a2.55,2.55,0,0,0-.07-.8.6.6,0,0,0-.27-.28,1.09,1.09,0,0,0-.55-.12H239v-.22h7V63.1h-.25a2.18,2.18,0,0,0-.44-1.24,1.88,1.88,0,0,0-1-.57,6.72,6.72,0,0,0-1.36-.09Z" />
      <path class="cls-2" d="M260.78,60.72V63h-.22a3.44,3.44,0,0,0-.44-1.12,1.52,1.52,0,0,0-.65-.54,2,2,0,0,0-.82-.11H258v6.4a2.55,2.55,0,0,0,.07.8.6.6,0,0,0,.27.28,1.13,1.13,0,0,0,.56.12h.28V69h-4.35V68.8h.27a1.23,1.23,0,0,0,.59-.13.63.63,0,0,0,.25-.3,2.75,2.75,0,0,0,.06-.77V61.2h-.6a1.7,1.7,0,0,0-1.21.35,2.35,2.35,0,0,0-.68,1.42h-.23V60.72Z" />
      <path class="cls-2" d="M265,61.2v3.38h.16a1.32,1.32,0,0,0,1.15-.5,3.19,3.19,0,0,0,.45-1.46H267V67h-.23a3.21,3.21,0,0,0-.31-1.17,1.39,1.39,0,0,0-.55-.61A2.15,2.15,0,0,0,265,65v2.34a4.29,4.29,0,0,0,0,.84.52.52,0,0,0,.22.25,1.11,1.11,0,0,0,.52.1h.49a3,3,0,0,0,1.87-.54,3,3,0,0,0,1-1.65h.23L269,69H261.8V68.8h.27a1.26,1.26,0,0,0,.59-.13.62.62,0,0,0,.24-.3,2.27,2.27,0,0,0,.07-.77V62.14a4.32,4.32,0,0,0,0-.69.54.54,0,0,0-.23-.33,1,1,0,0,0-.64-.18h-.27v-.22h6.95v2.45h-.23a3.05,3.05,0,0,0-.5-1.29,1.87,1.87,0,0,0-.91-.57,4.68,4.68,0,0,0-1.29-.11Z" />
      <path class="cls-2" d="M278.6,60.53v2.88h-.23a3.14,3.14,0,0,0-1-1.73,2.58,2.58,0,0,0-1.67-.6,2.42,2.42,0,0,0-1.42.45,2.48,2.48,0,0,0-.95,1.17,5.2,5.2,0,0,0-.39,2,6.78,6.78,0,0,0,.28,2,2.68,2.68,0,0,0,.88,1.39,2.5,2.5,0,0,0,1.56.47,3.07,3.07,0,0,0,1.44-.35,4.83,4.83,0,0,0,1.37-1.18v.72A4.48,4.48,0,0,1,277,68.89a4.44,4.44,0,0,1-1.77.32,5,5,0,0,1-2.36-.53,3.67,3.67,0,0,1-1.59-1.53,4.21,4.21,0,0,1-.56-2.13,4.51,4.51,0,0,1,2.3-3.9,4.44,4.44,0,0,1,2.24-.59,4.94,4.94,0,0,1,1.85.38,3.3,3.3,0,0,0,.72.22.46.46,0,0,0,.34-.15.79.79,0,0,0,.19-.45Z" />
      <path class="cls-2" d="M283,65V67.6a2.91,2.91,0,0,0,.07.8.63.63,0,0,0,.28.28,1.09,1.09,0,0,0,.55.12h.28V69h-4.34V68.8h.27a1.19,1.19,0,0,0,.58-.13.58.58,0,0,0,.25-.3,2.59,2.59,0,0,0,.07-.77V62.14a2.91,2.91,0,0,0-.07-.8.71.71,0,0,0-.27-.28,1.11,1.11,0,0,0-.56-.12h-.27v-.22h4.34v.22h-.28a1.21,1.21,0,0,0-.58.13.63.63,0,0,0-.25.3,2.59,2.59,0,0,0-.07.77v2.35H286V62.14a2.55,2.55,0,0,0-.07-.8.65.65,0,0,0-.27-.28,1.13,1.13,0,0,0-.56-.12h-.27v-.22h4.34v.22h-.27a1.23,1.23,0,0,0-.59.13.63.63,0,0,0-.25.3,2.75,2.75,0,0,0-.06.77V67.6a3.08,3.08,0,0,0,.06.8.63.63,0,0,0,.28.28,1.11,1.11,0,0,0,.56.12h.27V69H284.8V68.8h.27a1.19,1.19,0,0,0,.58-.13.58.58,0,0,0,.25-.3,2.27,2.27,0,0,0,.07-.77V65Z" />
      <path class="cls-2" d="M292.8,60.72l4.1,5.15V62.3a1.61,1.61,0,0,0-.22-1,1.18,1.18,0,0,0-1-.35v-.22h2.74v.22a2.17,2.17,0,0,0-.7.18.68.68,0,0,0-.29.35,2.59,2.59,0,0,0-.1.83v6.91h-.21l-5.61-6.91v5.28a1.2,1.2,0,0,0,.32,1,1.25,1.25,0,0,0,.75.25h.2V69h-2.95V68.8a1.39,1.39,0,0,0,1-.28,1.34,1.34,0,0,0,.27-.94V61.72l-.18-.23a1.58,1.58,0,0,0-.46-.43,1.45,1.45,0,0,0-.59-.12v-.22Z" />
      <path class="cls-2" d="M303.9,60.6a4.12,4.12,0,0,1,4.46,4.24,4.47,4.47,0,0,1-.92,2.78A4.12,4.12,0,0,1,304,69.21a4.2,4.2,0,0,1-3.47-1.51,4.39,4.39,0,0,1-1-2.85,4.14,4.14,0,0,1,1.26-3.09A4,4,0,0,1,303.9,60.6ZM304,61a1.86,1.86,0,0,0-1.73,1.17,6.07,6.07,0,0,0-.49,2.74A5.28,5.28,0,0,0,302.5,68a1.69,1.69,0,0,0,1.46.71,1.76,1.76,0,0,0,1.05-.3,2.51,2.51,0,0,0,.84-1.25,7,7,0,0,0,.3-2.25,7.33,7.33,0,0,0-.31-2.47,2.33,2.33,0,0,0-.78-1.15A1.86,1.86,0,0,0,304,61Z" />
      <path class="cls-2" d="M317,66.11,316.73,69h-7.37V68.8h.27a1.19,1.19,0,0,0,.58-.13.58.58,0,0,0,.25-.3,2.59,2.59,0,0,0,.07-.77V62.14a2.91,2.91,0,0,0-.07-.8.71.71,0,0,0-.27-.28,1.13,1.13,0,0,0-.56-.12h-.27v-.22h4.43v.22h-.37a1.21,1.21,0,0,0-.58.13.63.63,0,0,0-.25.3,2.59,2.59,0,0,0-.07.77v5.29a2.51,2.51,0,0,0,.08.81.45.45,0,0,0,.28.26,2.77,2.77,0,0,0,.75.06h.69a2.39,2.39,0,0,0,1.1-.23,2.06,2.06,0,0,0,.76-.74,5.63,5.63,0,0,0,.61-1.48Z" />
      <path class="cls-2" d="M322.65,60.6a4.12,4.12,0,0,1,4.47,4.24,4.42,4.42,0,0,1-.93,2.78,4.12,4.12,0,0,1-3.46,1.59,4.22,4.22,0,0,1-3.47-1.51,4.44,4.44,0,0,1-1-2.85,4.13,4.13,0,0,1,1.25-3.09A4,4,0,0,1,322.65,60.6Zm.07.39A1.87,1.87,0,0,0,321,62.16a6.23,6.23,0,0,0-.48,2.74,5.36,5.36,0,0,0,.74,3.14,1.7,1.7,0,0,0,1.46.71,1.81,1.81,0,0,0,1.06-.3,2.51,2.51,0,0,0,.84-1.25,7,7,0,0,0,.3-2.25,7.6,7.6,0,0,0-.31-2.47,2.4,2.4,0,0,0-.78-1.15A1.89,1.89,0,0,0,322.72,61Z" />
      <path class="cls-2" d="M336.53,60.53v2.93h-.22a3.86,3.86,0,0,0-1.23-1.83,2.9,2.9,0,0,0-1.8-.63,2.31,2.31,0,0,0-1.55.53,2.85,2.85,0,0,0-.87,1.46,7.61,7.61,0,0,0,0,4,2.37,2.37,0,0,0,.91,1.32,2.63,2.63,0,0,0,1.49.42,3.34,3.34,0,0,0,.62-.06,4.19,4.19,0,0,0,.64-.19V66.78a2.11,2.11,0,0,0-.06-.64.71.71,0,0,0-.28-.26,1,1,0,0,0-.51-.11h-.22v-.23h4v.23a1.84,1.84,0,0,0-.64.12.6.6,0,0,0-.28.32,1.54,1.54,0,0,0-.06.57V68.5a8,8,0,0,1-1.65.54,8.76,8.76,0,0,1-1.79.18,5.25,5.25,0,0,1-2-.32,5.07,5.07,0,0,1-1.38-.85,3.85,3.85,0,0,1-.93-1.18,4,4,0,0,1-.43-1.89,4.31,4.31,0,0,1,1.31-3.17A4.56,4.56,0,0,1,333,60.52a5.39,5.39,0,0,1,1.11.1,5,5,0,0,1,.88.28,4,4,0,0,0,.71.23A.47.47,0,0,0,336,61a1.05,1.05,0,0,0,.27-.47Z" />
      <path class="cls-2" d="M346.87,60.72v.22a1.3,1.3,0,0,0-.63.24,6.37,6.37,0,0,0-1,1.41l-1.8,3v2a2.5,2.5,0,0,0,.07.8.58.58,0,0,0,.26.28,1,1,0,0,0,.53.12h.47V69h-4.66V68.8h.43a1.16,1.16,0,0,0,.58-.13.65.65,0,0,0,.26-.3,2.75,2.75,0,0,0,.06-.77V65.94l-2-3.56a5,5,0,0,0-.82-1.24,1,1,0,0,0-.64-.2v-.22h4v.22h-.17a.89.89,0,0,0-.51.11.27.27,0,0,0-.14.22,3.65,3.65,0,0,0,.49,1.11l1.5,2.75,1.49-2.51a3.36,3.36,0,0,0,.56-1.22.31.31,0,0,0-.16-.27,1.52,1.52,0,0,0-.77-.19v-.22Z" />
      -->
      <path class="cls-2" d="M60.81,31.28l0-1.16h.09v.06a.45.45,0,0,0,.06.19.87.87,0,0,0,.17.22,2.24,2.24,0,0,0,.35.24l1.28.77.83,0A.62.62,0,0,0,64,31.5a.4.4,0,0,0,.09-.29V31.1h.09l0,1.41h-.09v-.12a.32.32,0,0,0-.13-.29.75.75,0,0,0-.36-.05l-.79,0-1.37,1a1.9,1.9,0,0,0-.3.22,1,1,0,0,0-.15.24.35.35,0,0,0,0,.15h-.09l0-1.42h.09v.08a.37.37,0,0,0,.06.21.17.17,0,0,0,.17.09.72.72,0,0,0,.31-.16l1.06-.71-1.05-.63a.59.59,0,0,0-.34-.14A.16.16,0,0,0,61,31a.22.22,0,0,0-.09.1,1,1,0,0,0,0,.2Zm-.08,2.84h1.05v.08a1.45,1.45,0,0,0-.61.3,1,1,0,0,0-.33.74,1.08,1.08,0,0,0,.44,1,1.86,1.86,0,0,0,1,.34,2,2,0,0,0,.88-.13,1.28,1.28,0,0,0,.6-.44,1.08,1.08,0,0,0,.22-.6,1.43,1.43,0,0,0,0-.36,1.06,1.06,0,0,0-.12-.34l-1-.06a.76.76,0,0,0-.33,0,.18.18,0,0,0-.12.11.67.67,0,0,0-.06.27h-.09l.08-1.29h.09v.06a.27.27,0,0,0,.11.27.81.81,0,0,0,.35.07l1,.06a2.8,2.8,0,0,1,.19.58,3,3,0,0,1,0,.61,1.78,1.78,0,0,1-.71,1.42,1.68,1.68,0,0,1-1.09.31,1.92,1.92,0,0,1-.83-.26,1.81,1.81,0,0,1-.69-.74,1.64,1.64,0,0,1-.16-.87,2.88,2.88,0,0,1,.05-.33,3.6,3.6,0,0,1,.16-.41.59.59,0,0,0,.06-.18s0-.06,0-.09a.32.32,0,0,0-.17,0Zm-.3,4.81a.86.86,0,0,0,.21.76,1.85,1.85,0,0,0,1.13.54,2,2,0,0,0,1.3-.13.94.94,0,0,0,.45-.65,1,1,0,0,0-.24-.82,1.79,1.79,0,0,0-1.08-.49,2,2,0,0,0-1.31.11A.91.91,0,0,0,60.43,38.93Zm-.17-.07a1.51,1.51,0,0,1,.68-1,1.86,1.86,0,0,1,2.44.42,1.53,1.53,0,0,1,.3,1.23A1.5,1.5,0,0,1,63,40.53a1.74,1.74,0,0,1-1.32.26A1.72,1.72,0,0,1,60.5,40,1.59,1.59,0,0,1,60.26,38.86Zm2.08,2.53,0-.07.8.51-.7,2.48-.08,0,0-.12a.33.33,0,0,0-.05-.33.77.77,0,0,0-.34-.15L60,43.11c-.2,0-.33-.07-.39,0a.33.33,0,0,0-.18.24l0,.12-.09,0,.4-1.44.09,0a1,1,0,0,0,0,.37.26.26,0,0,0,.09.18,1,1,0,0,0,.35.13l2,.57a.87.87,0,0,0,.28,0,.13.13,0,0,0,.09-.07,1.69,1.69,0,0,0,.13-.36l.07-.24a1.63,1.63,0,0,0,.09-.53.66.66,0,0,0-.12-.32A1.51,1.51,0,0,0,62.34,41.39Zm-3.6,3.79a.91.91,0,0,0,0,.79,1.86,1.86,0,0,0,1,.76,2,2,0,0,0,1.29.13.82.82,0,0,0,.57-.53.94.94,0,0,0,0-.85,1.75,1.75,0,0,0-1-.71,2,2,0,0,0-1.31-.16A.91.91,0,0,0,58.74,45.18Zm-.15-.11a1.5,1.5,0,0,1,.87-.86,1.73,1.73,0,0,1,1.32,0,1.75,1.75,0,0,1,1,.91,1.59,1.59,0,0,1-.84,2.15,1.72,1.72,0,0,1-1.35,0,1.67,1.67,0,0,1-1-1A1.61,1.61,0,0,1,58.59,45.07Zm-2.27,4.86.42-.8,3.15-.65-1.7-.89a.79.79,0,0,0-.36-.12.42.42,0,0,0-.23.21l-.05.1-.09,0,.54-1,.08,0,0,.1a.33.33,0,0,0,0,.33.76.76,0,0,0,.3.21l2.48,1.3,0,.08-3.39.7,1.81,1a.62.62,0,0,0,.37.12.38.38,0,0,0,.23-.21l.05-.1.08,0-.54,1-.08-.05.06-.1a.34.34,0,0,0,0-.32.69.69,0,0,0-.29-.22L57,49.55a1.38,1.38,0,0,0-.3.09,1,1,0,0,0-.19.15.9.9,0,0,0-.12.18Zm-.28,3,.88-1.27-.78-.54a1,1,0,0,0-.3-.17.24.24,0,0,0-.14,0,.46.46,0,0,0-.18.16l-.07.09-.07-.05L56.19,50l.07,0-.06.1a.34.34,0,0,0-.08.21.22.22,0,0,0,0,.16.93.93,0,0,0,.26.21l1.76,1.22a1.28,1.28,0,0,0,.29.16.21.21,0,0,0,.15,0,.65.65,0,0,0,.18-.15l.06-.1.07.05L58.12,53,58,53l.07-.1a.37.37,0,0,0,.07-.31c0-.06-.11-.15-.28-.26l-.83-.58L56.19,53l.83.58a1.11,1.11,0,0,0,.3.16.24.24,0,0,0,.14,0,.55.55,0,0,0,.18-.16l.06-.09.08,0L57,54.67l-.08-.05.07-.09a.36.36,0,0,0,.07-.32.81.81,0,0,0-.27-.27L55,52.72a1.28,1.28,0,0,0-.29-.16.27.27,0,0,0-.15,0,.65.65,0,0,0-.18.15l-.06.1-.08,0L55,51.61l.08,0-.07.1A.39.39,0,0,0,55,52a.17.17,0,0,0,0,.15,1.32,1.32,0,0,0,.25.21Zm-1.92-.21.84.77-.06.05a1.41,1.41,0,0,0-.82-.23,1.06,1.06,0,0,0-.64.3,1.09,1.09,0,0,0-.32.53,1.16,1.16,0,0,0,.06.68,2.43,2.43,0,0,0,.52.77,1.91,1.91,0,0,0,.64.47,1,1,0,0,0,.67.07,1.13,1.13,0,0,0,.6-.33,1.1,1.1,0,0,0,.32-.49,1.89,1.89,0,0,0,0-.77l.09,0a1.76,1.76,0,0,1,0,.88,1.45,1.45,0,0,1-.44.69,1.48,1.48,0,0,1-1.35.43,1.71,1.71,0,0,1-1-.55,1.84,1.84,0,0,1-.47-.82,1.58,1.58,0,0,1,0-.89,1.63,1.63,0,0,1,.46-.75,1.61,1.61,0,0,1,.64-.36.38.38,0,0,0,.14-.06.17.17,0,0,0,0-.12.29.29,0,0,0,0-.19Zm-3.45,3.42.77,1.06.59-.43a.64.64,0,0,0,.26-.3.59.59,0,0,0-.12-.4l.07-.06.69.94-.08.05a.89.89,0,0,0-.24-.21.24.24,0,0,0-.19,0,.66.66,0,0,0-.28.14l-.59.43.65.89a1.77,1.77,0,0,0,.17.2.22.22,0,0,0,.11,0,.33.33,0,0,0,.16-.09l.45-.33a1.57,1.57,0,0,0,.31-.27.78.78,0,0,0,.11-.28,1.76,1.76,0,0,0,0-.55l.08-.05.26.84-2.06,1.52-.06-.08.1-.07a.46.46,0,0,0,.14-.17.25.25,0,0,0,0-.17,1.27,1.27,0,0,0-.17-.27l-1.28-1.74c-.13-.17-.22-.26-.28-.28a.4.4,0,0,0-.3.1l-.09.07-.06-.08L51.86,55l.46.56-.08.06a1.31,1.31,0,0,0-.3-.23.48.48,0,0,0-.24,0,1,1,0,0,0-.3.18Zm-.94.59.42.66-.08,0a.68.68,0,0,0-.21-.21.48.48,0,0,0-.28-.08.68.68,0,0,0-.32.11l-.4.23,1.28,2.19c.1.18.19.28.25.3a.37.37,0,0,0,.3-.05l.1-.06.05.08-1.22.71,0-.08.1-.06a.33.33,0,0,0,.2-.26.92.92,0,0,0-.13-.34l-1.29-2.19-.34.2a1.37,1.37,0,0,0-.28.2.54.54,0,0,0-.09.27.68.68,0,0,0,.09.36l-.08,0-.36-.69Zm-5.62,3,.41,1.24.58-.19a.44.44,0,0,0,.26-.18.69.69,0,0,0,0-.39l.08,0,.35,1.07-.08,0a.69.69,0,0,0-.14-.26.34.34,0,0,0-.17-.08.62.62,0,0,0-.25,0l-.58.19.33,1a1,1,0,0,0,.14.3.19.19,0,0,0,.13.07.59.59,0,0,0,.23,0l.12,0,0,.08L44.2,63l0-.08.11,0a.34.34,0,0,0,.25-.21.79.79,0,0,0-.06-.38l-.68-2a1.13,1.13,0,0,0-.13-.3.27.27,0,0,0-.13-.07.49.49,0,0,0-.24,0l-.11,0,0-.08,2.34-.78.26.68-.08,0a.89.89,0,0,0-.25-.28.54.54,0,0,0-.24-.09,1.43,1.43,0,0,0-.38.08Zm-2.68.79a.89.89,0,0,0-.63.48,1.89,1.89,0,0,0,0,1.26,2,2,0,0,0,.62,1.14.88.88,0,0,0,.77.16,1,1,0,0,0,.67-.54,1.79,1.79,0,0,0,0-1.19,2,2,0,0,0-.62-1.16A.87.87,0,0,0,41.43,60.49Zm0-.19a1.52,1.52,0,0,1,1.2.22,1.69,1.69,0,0,1,.75,1.08,1.76,1.76,0,0,1-.18,1.34,1.53,1.53,0,0,1-1,.76A1.56,1.56,0,0,1,41,63.49a1.77,1.77,0,0,1-.75-1.13A1.7,1.7,0,0,1,40.44,61,1.57,1.57,0,0,1,41.43,60.3Zm-4.67.85,1.16,0v.09h-.06a.45.45,0,0,0-.19.06,1.18,1.18,0,0,0-.22.17,2.56,2.56,0,0,0-.23.36l-.75,1.29,0,.84a.68.68,0,0,0,.08.38.39.39,0,0,0,.3.08H37v.09l-1.41.06v-.09h.12a.39.39,0,0,0,.3-.14.83.83,0,0,0,0-.36l0-.79L35,61.8a2.4,2.4,0,0,0-.24-.3.79.79,0,0,0-.24-.14l-.14,0v-.09l1.42-.06v.09h-.08a.42.42,0,0,0-.21.06.18.18,0,0,0-.09.16,1,1,0,0,0,.16.32l.74,1,.61-1a.72.72,0,0,0,.13-.35.22.22,0,0,0-.14-.2.49.49,0,0,0-.2,0Zm-2.45.11V62h-.09a.85.85,0,0,0-.06-.29.52.52,0,0,0-.19-.22.64.64,0,0,0-.33-.08l-.47,0L33.05,64a.65.65,0,0,0,.05.38.32.32,0,0,0,.28.12h.12v.09l-1.4-.07v-.09h.12a.33.33,0,0,0,.3-.12.7.7,0,0,0,.07-.35l.12-2.54-.4,0a1.38,1.38,0,0,0-.33,0,.53.53,0,0,0-.23.17.69.69,0,0,0-.12.35h-.1l.08-.78Zm-3.41,3v.09l-1.41-.19V64l.12,0a.38.38,0,0,0,.31-.08A.89.89,0,0,0,30,63.6l.28-2.13a1.55,1.55,0,0,0,0-.34.39.39,0,0,0-.09-.11.43.43,0,0,0-.22-.09h-.11v-.1l1.41.19v.1l-.12,0a.35.35,0,0,0-.31.08.75.75,0,0,0-.11.36l-.29,2.13a1.36,1.36,0,0,0,0,.34.19.19,0,0,0,.09.11.29.29,0,0,0,.21.09Zm-1.43-3.51-.27,1.12-.09,0a1.59,1.59,0,0,0,0-.55.82.82,0,0,0-.24-.38.91.91,0,0,0-.4-.21.63.63,0,0,0-.45.05.44.44,0,0,0-.24.31.38.38,0,0,0,0,.29,2.55,2.55,0,0,0,.58.65,3.71,3.71,0,0,1,.53.52.91.91,0,0,1,.18.37.86.86,0,0,1,0,.39.89.89,0,0,1-.44.57,1,1,0,0,1-.79.08l-.27-.08-.28-.17L27,63.5a.13.13,0,0,0-.11,0,.33.33,0,0,0-.09.14l-.08,0L27,62.51l.08,0a1.5,1.5,0,0,0,0,.56.84.84,0,0,0,.25.37,1.07,1.07,0,0,0,.44.22.67.67,0,0,0,.51,0,.48.48,0,0,0,.26-.33.57.57,0,0,0,0-.26.91.91,0,0,0-.15-.27c-.05-.06-.2-.21-.44-.43a5.5,5.5,0,0,1-.5-.51,1.09,1.09,0,0,1-.19-.37.84.84,0,0,1,.41-.93,1,1,0,0,1,.74-.08,1.34,1.34,0,0,1,.52.26.68.68,0,0,0,.17.1.14.14,0,0,0,.11,0,.23.23,0,0,0,.1-.14Zm-4.95.34.08,0,0,0a1.07,1.07,0,0,0,.74,0,.66.66,0,0,0,.4-.43.67.67,0,0,0,0-.54.73.73,0,0,0-.43-.35,3,3,0,0,0-.38-.08Zm1.69,2.37-.84-.28L24.8,61.3l-.19-.06-.07,0-.07,0-.31.91a.63.63,0,0,0-.06.39.35.35,0,0,0,.23.19l.12,0,0,.09-1.35-.46,0-.08.11,0a.34.34,0,0,0,.33,0,.67.67,0,0,0,.17-.32l.69-2a.67.67,0,0,0,.05-.39.32.32,0,0,0-.23-.19l-.12,0,0-.09,1.15.39a2.69,2.69,0,0,1,.71.32.87.87,0,0,1,.32.41.81.81,0,0,1-.36,1,1.1,1.1,0,0,1-.68.11l.34,1.12a1.74,1.74,0,0,0,.24.54,1,1,0,0,0,.38.28Zm-3.9-4.89-.55,1.19.66.31a.72.72,0,0,0,.38.08.54.54,0,0,0,.3-.3l.08,0L22.7,60.9l-.08,0a1.82,1.82,0,0,0,.07-.3.46.46,0,0,0-.08-.19,1.05,1.05,0,0,0-.26-.17l-.66-.3-.46,1a1.17,1.17,0,0,0-.1.25.17.17,0,0,0,0,.1.34.34,0,0,0,.16.1l.51.24a1.89,1.89,0,0,0,.39.14.75.75,0,0,0,.29,0,2,2,0,0,0,.47-.29l.09,0-.6.64L20.14,61l0-.08.11.05a.59.59,0,0,0,.23,0,.2.2,0,0,0,.14-.06,1,1,0,0,0,.16-.29l.9-2a.7.7,0,0,0,.11-.38.4.4,0,0,0-.23-.21l-.1-.05,0-.09L23.85,59l-.27.67-.08,0a1.14,1.14,0,0,0,0-.37.36.36,0,0,0-.11-.22.94.94,0,0,0-.29-.17Zm-.82-.66,0,.07a.59.59,0,0,0-.28,0,1.21,1.21,0,0,0-.39.2L18.33,60l-.08-.05.39-3.1a1.25,1.25,0,0,0,0-.3.48.48,0,0,0-.06-.18.65.65,0,0,0-.19-.17l.05-.08,1.17.69-.05.08c-.14-.07-.24-.1-.29-.08a.17.17,0,0,0-.14.09,1,1,0,0,0-.09.38l-.27,2.11,1.66-1.26a1.19,1.19,0,0,0,.3-.28.24.24,0,0,0,0-.15.54.54,0,0,0-.16-.2l0,0,.05-.08Zm-4.87.64-.05.08-1.15-.86.06-.07.09.07a.4.4,0,0,0,.31.09.8.8,0,0,0,.28-.27l1.28-1.73a1,1,0,0,0,.17-.28.27.27,0,0,0,0-.15.65.65,0,0,0-.15-.18l-.1-.07.06-.07,1.14.85L18.5,56l-.1-.07a.35.35,0,0,0-.31-.08.74.74,0,0,0-.27.26l-1.28,1.73a1.07,1.07,0,0,0-.18.28.26.26,0,0,0,0,.15.37.37,0,0,0,.14.18Zm-1.91-6,.66.62-.19,3.21,1.3-1.41q.21-.22.21-.33a.4.4,0,0,0-.14-.27l-.09-.08.06-.06.86.78-.07.07L17.23,55a.34.34,0,0,0-.31-.1c-.06,0-.15.09-.28.22l-1.9,2.07-.07-.06.21-3.46-1.39,1.51c-.14.15-.21.25-.21.33a.34.34,0,0,0,.14.26l.08.08-.06.07-.85-.79.06-.06.09.07a.35.35,0,0,0,.31.12.85.85,0,0,0,.28-.23l1.57-1.7a2.37,2.37,0,0,0,0-.31,1.33,1.33,0,0,0-.1-.23.81.81,0,0,0-.14-.16Zm-.61-.84.07-.06.78.88-.07.06-.08-.09a.35.35,0,0,0-.33-.12.79.79,0,0,0-.3.19l-1,.9a2.29,2.29,0,0,1-.64.43.93.93,0,0,1-.62,0,1.35,1.35,0,0,1-.67-.46,1.46,1.46,0,0,1-.4-.75,1.06,1.06,0,0,1,.11-.63,2.85,2.85,0,0,1,.57-.6l1-.86a.62.62,0,0,0,.25-.33.38.38,0,0,0-.11-.27l-.08-.09.06-.06,1,1.08-.06.06-.09-.1a.35.35,0,0,0-.29-.14,1,1,0,0,0-.32.2l-1.08,1a3.21,3.21,0,0,0-.32.32,1.1,1.1,0,0,0-.2.36.69.69,0,0,0,0,.35.94.94,0,0,0,.22.38,1.17,1.17,0,0,0,.49.35.82.82,0,0,0,.51,0,2.08,2.08,0,0,0,.62-.42l1-.9a.68.68,0,0,0,.25-.3.36.36,0,0,0-.11-.29ZM10,44.62l.43.79-1.23,3,1.69-.91q.27-.15.3-.24a.37.37,0,0,0,0-.3l-.06-.11.08,0,.55,1-.08,0-.05-.1a.35.35,0,0,0-.26-.21.86.86,0,0,0-.34.13L8.53,49l0-.08,1.32-3.2L8,46.69c-.17.1-.28.18-.3.24a.37.37,0,0,0,0,.3l0,.11-.08,0-.55-1,.08,0,.06.1a.34.34,0,0,0,.25.2.67.67,0,0,0,.34-.12l2-1.09A2.48,2.48,0,0,0,10,45.1a1,1,0,0,0,0-.24,1.43,1.43,0,0,0-.09-.2ZM8,44.3l1.15-.9-1.45-.2Zm-.16.12-.34-1.25-.56-.07a1.06,1.06,0,0,0-.3,0,.17.17,0,0,0-.11.11.58.58,0,0,0,0,.32l-.09,0-.28-1,.09,0c.06.13.11.21.16.23a1.45,1.45,0,0,0,.54.14l3,.41,0,.08L7.55,45.22a1.23,1.23,0,0,0-.35.36.59.59,0,0,0,0,.33l-.08,0-.35-1.27.09,0a.43.43,0,0,0,.13.24.17.17,0,0,0,.15,0,1.84,1.84,0,0,0,.31-.19Zm-.52-5L7.56,41l.94-.16a.83.83,0,0,0,.32-.09.19.19,0,0,0,.09-.12.33.33,0,0,0,0-.22l0-.12H9l.23,1.4H9.14l0-.11A.4.4,0,0,0,9,41.36a.2.2,0,0,0-.13-.09,1.13,1.13,0,0,0-.33,0l-2.11.35a1,1,0,0,0-.33.08.31.31,0,0,0-.09.12.58.58,0,0,0,0,.23l0,.11-.09,0-.23-1.4.09,0,0,.12a.35.35,0,0,0,.17.27.75.75,0,0,0,.38,0l1-.16-.25-1.53-1,.16a1.16,1.16,0,0,0-.33.09.18.18,0,0,0-.08.12.45.45,0,0,0,0,.23l0,.12H5.62l-.23-1.4.09,0,0,.12a.39.39,0,0,0,.17.28,1,1,0,0,0,.38,0l2.12-.35a1.41,1.41,0,0,0,.33-.08.28.28,0,0,0,.08-.12.37.37,0,0,0,0-.23l0-.12h.1l.23,1.4-.09,0,0-.12a.5.5,0,0,0-.09-.21.26.26,0,0,0-.14-.09,1.07,1.07,0,0,0-.32,0Zm1.08-2.4h.09l.08,1.18H8.47l0-.13a.34.34,0,0,0-.18-.29.81.81,0,0,0-.36,0l-1.34.11a2.56,2.56,0,0,1-.78,0,1,1,0,0,1-.51-.35A1.5,1.5,0,0,1,5,36.73a1.58,1.58,0,0,1,.13-.84,1,1,0,0,1,.48-.43,2.81,2.81,0,0,1,.81-.15l1.3-.09a.68.68,0,0,0,.39-.12.34.34,0,0,0,.07-.28V34.7h.09l.11,1.43H8.3V36a.36.36,0,0,0-.16-.28.63.63,0,0,0-.37,0l-1.45.11a2.72,2.72,0,0,0-.43.07.79.79,0,0,0-.38.16.61.61,0,0,0-.21.28.83.83,0,0,0-.06.43,1.25,1.25,0,0,0,.19.58.73.73,0,0,0,.38.32,2.35,2.35,0,0,0,.76,0l1.35-.11a.66.66,0,0,0,.38-.09.35.35,0,0,0,.08-.29Zm-.15-2.32H8.14a.48.48,0,0,0,0-.22.67.67,0,0,0-.17-.16,3.1,3.1,0,0,0-.4-.16l-2.66-1V33.1L7,32.4l-2.1-.81V31.5l2.79-.91.37-.13a.29.29,0,0,0,.14-.13.49.49,0,0,0,0-.23h.1l0,1.24H8.24v-.06a.31.31,0,0,0-.05-.2A.17.17,0,0,0,8.05,31a1.65,1.65,0,0,0-.4.1l-1.89.6,1.57.6.29-.09.22-.07L8.06,32A.27.27,0,0,0,8.14,32a.37.37,0,0,0,.07-.12.54.54,0,0,0,0-.15h.09l0,1.3H8.19v-.1a.25.25,0,0,0,0-.2A.26.26,0,0,0,8,32.61a1.79,1.79,0,0,0-.44.11l-1.82.58L7.53,34a2,2,0,0,0,.42.13.25.25,0,0,0,.11,0A.22.22,0,0,0,8.13,34a.75.75,0,0,0,0-.24h.09Z" />
      <path class="cls-1" d="M34.5,0A34.72,34.72,0,1,0,69.43,34.5,34.72,34.72,0,0,0,34.5,0Zm24,58.18a33.4,33.4,0,1,1,9.63-23.67A33.32,33.32,0,0,1,58.48,58.18Z" />
      <path class="cls-2" d="M17.86,18.07A23.71,23.71,0,1,1,11,34.86a23.64,23.64,0,0,1,6.82-16.79m16.72-6.14a22.79,22.79,0,1,0,16.15,6.58A22.73,22.73,0,0,0,34.58,11.93Z" />
      <path class="cls-1" d="M34.57,11.11A23.61,23.61,0,1,0,58.33,34.57,23.6,23.6,0,0,0,34.57,11.11Zm-1.63,34-.9.4-.87.36-.9.36-.94.31-.83.22-.83.22-1,.18-.83.15-1.11.06-.92.07h-1L22,47.3l-.91-.18-.92-.32-.94-.46-.8-.53-.76-.6-.65-.7-.55-.69L16,43l-.4-.93-.35-1L15,40.24l-.17-1.08,0-.89V37.06l.11-1,.15-1.17.18-.92.21-1,.25-.88.32-.88.43-1,.38-.84.5-.77.38-.73.49-.69.53-.66.55-.65.74-.76.71-.69.73-.61.81-.68,1.07-.77.9-.52,1.07-.61,1.14-.52-.77,1.31-.95,1.81-.34.7-.47,1-.35.91-.4,1.09-.32,1-.33,1.23-.25,1-.22,1.06L21.9,33l0,1,0,1,0,1,.11.89.14.93.32,1,.36.88.4.76.4.65.48.63.65.63.76.67.77.45.73.38L28,44l.71.21,1,.15,1.2.08,1.1.07,1,0,1,0ZM36.48,44l-1.15.14-1.21.08-1.08,0-1.08,0L30.76,44l-1-.22-1-.4L27.9,43l-.82-.51-.58-.57-.58-.62-.57-.86L25,39.64l-.38-1-.27-1-.08-1V35.4l.16-1.07.16-1,.28-1.07.46-1.19L26,29.63l.77-1.3.83-1.23,1-1.23,1.07-1.28,1.07-1.11,1.12-1,1.06-1,1.36-1,1.3-.86L37,18.84l1.22-.61,1.23-.5,1.34-.49,1.4-.49,1.28-.43-1.17.92-.63.51-.8.64-.75.69-.81.76-.82.92-.82.94L37,22.75l-.7,1.12L35.69,25l-.53,1.25-.41,1.25-.34,1.25-.29,1.31L34,31.19,33.9,32.4l.09,1,.13,1.15.27,1,.32,1.1.45.86.46.68.68.87.88.75,1.12.65,1.07.4,1,.28,1.08.22,1,0,1.08,0,.79-.09.72,0-.61.34-.74.4-.91.32-1,.39-1.1.38-1,.32-1,.2-1.09.26Zm17.15-.55-.25.62-.24.51-.28.55-.35.5-.28.44-.38.42-.39.28-.42.32-.63.24,0-.52.12-.48.1-.51.13-.44.25-.73-.27.25-.17.36-.15.37-.29-.35-.09.45-.17.51-.2.51-.2.47-.25.58-.35.47-.38.4-.23.25-.26,0-.34.1-.21-.31-.31.44-.39.54-.25.47-.34.43-.35.43-.31.39-.06-.56-.22,0-.16.37-.3.35-.2.2,0-.23.22-.33.14-.36.25-.45.15-.43.18-.36.11-.33.11-.36-.23.13-.18.32-.18.36-.21.36-.18.36-.21.32-.11.3-.15.29-.28.39.06-.63-.24.15-.18.33-.21.36-.21.25-.28.36-.27.28-.35.39-.38.29-.34.18h-.19l0-.24.15-.29.08-.26.17-.26.11-.33,0-.23-.24.16-.24.25-.31.26-.28.29-.34.32-.38.31-.38.32-.24.26-.31.32.05-.3.13-.16h-.26l-.3.09-.31.09-.33.08.25-.35.3-.22.38-.35.31-.33.45-.38.45-.51.48-.51.49-.58.45-.52.35-.48.35-.45.31-.45.39-.56.35-.54.32-.46.28-.48.29-.59.29-.49.25-.62.25-.59.19-.59.16-.65L45.7,43l.09-.47.05-.49,0-.5,0-.49-.05-.6L45.72,40l0-.54L45.52,39l-.21-.57-.18-.5-.27-.58-.32-.47-.31-.48-.42-.44-.41-.39-.46-.28L42.48,35,42,34.75l-.49-.22L41,34.38l-.59-.09-.56-.08-.66,0-.6,0L38,34.2l-.57,0-.6.07-.57.12-.53.14-.5.12-.51.08-.39.09.38-.39.69-.49.79-.45.73-.49.75-.42.58-.42.6-.31.68-.39.71-.41.8-.38.78-.38.76-.38.76-.34.75-.34.75-.3.79-.38.9-.34.64-.23L48,27.8l.71-.16.71-.16.7-.12.75-.09.81.07.84.18.55.29.54.35.47.46.38.57.28.52.31.61.23.64.2.67.08.67.09.75c.31,3-.57,6.18-1.45,9Z" />
      <path class="cls-1" d="M8.79,20.17c.14-.14.22-.21.41-.12l.11.05a.77.77,0,0,1,.06.52c0,.05,0,.09,0,.14a1.06,1.06,0,0,1-.13.5s-.05,0-.08.07a2.05,2.05,0,0,1-.36.24l-.18.09s0,0,0,0h0a0,0,0,0,0,0,0l-.05,0a3,3,0,0,1,.1-.45h0s0,0,0,0,0,0,0,0a2.17,2.17,0,0,1,.07-.24s0,0,0,0a.31.31,0,0,0,.05-.1h0a.37.37,0,0,1,0-.15s0,0,0,0,0-.09,0-.13,0,0,0,0v0a.7.7,0,0,0,0-.25m1.32,3.22a.14.14,0,0,1,.18,0h0c0,.06.29,0,.35.07a0,0,0,0,1,0,0c.07,0,.17.15.17.15s0,0,0,0,0,.08,0,.06v0a.51.51,0,0,1-.06.3.08.08,0,0,0,0,0c-.07.08,0,.22-.12.3s-.26-.14-.28-.22a.47.47,0,0,0-.06-.21v0s0,0,0,0l0,0s0-.11,0-.1-.1-.18-.16-.27A.78.78,0,0,0,10.11,23.39Zm0-2a1.75,1.75,0,0,1,0,.33c0,.11-.14.3-.05.41s.41-.23.47-.32.06-.12,0-.19S10.18,21.3,10.1,21.35Zm.1-.71h0c0,.06,0,.23,0,.29s.11,0,.15.06a2.43,2.43,0,0,1,.25.2c.11.05.49.12.55,0s0-.08-.05-.11a3,3,0,0,0-.81-.46A.13.13,0,0,0,10.2,20.64Zm-2.44-2.1.17-.14c.07-.07.11-.14.19-.17a.64.64,0,0,1,.41.05,1.8,1.8,0,0,1,.21.19,5.6,5.6,0,0,1,.43.41c.05.09.11.18.17.27a3,3,0,0,0,.57.47c.05,0,.14.07.18,0s.06-.46.22-.43a.38.38,0,0,1,.13.1c.18.17.06.28,0,.47s-.06.17,0,.23l.18.12a3.26,3.26,0,0,0,1.11.54l.35.07a1,1,0,0,0,.23,0,0,0,0,0,1,0,0c0-.13-.26-.32-.37-.42l-.18-.2-.2-.19a.11.11,0,0,1,0-.13s.13,0,.18,0c.44,0,.73.37,1,.73l.3.29a1.53,1.53,0,0,1,.11.16l.12.12.11.14a.58.58,0,0,1,.16.19.55.55,0,0,1,0,.22c-.06.38-.45.2-.66.1a3.52,3.52,0,0,0-.42-.15c-.14,0-.29,0-.42-.06s-.24-.11-.33-.05a.08.08,0,0,0,0,0,1.44,1.44,0,0,0,0,.5c0,.17,0,.34.05.51a3.75,3.75,0,0,1,0,.58,1.6,1.6,0,0,0,0,.21c0,.14,0,.28,0,.43l0,.4c0,.17,0,.35,0,.53s0,.22-.07.34a1,1,0,0,1-.14.38c0,.05-.17,0-.27.09a.83.83,0,0,0-.12.08c-.14.06-.23.09-.28,0s-.09,0-.06,0a1.16,1.16,0,0,0,.13-.34h0c0-.19.12-.37.16-.55a2.68,2.68,0,0,1,.13-.65h0a1.22,1.22,0,0,1,0-.27h0a1.55,1.55,0,0,0,0-.21l0-.38a3.08,3.08,0,0,1,0-.33c-.06-.21.1-.61-.07-.79a1.72,1.72,0,0,0-.33-.22l-.11-.05s0,0,0,0a2,2,0,0,0,.06.47,2.14,2.14,0,0,0,.12.28c.07.21,0,.51-.24.55a.25.25,0,0,1-.25-.09,1.15,1.15,0,0,1-.22-.35h0c-.09-.11-.28-.34-.39-.15a1.12,1.12,0,0,1-.11.26.18.18,0,0,1-.09-.06v0s0,0,0,0,0,.08,0,.12a1,1,0,0,1,.09.18,1.22,1.22,0,0,1,0,.38c0,.06,0,.12,0,.18a2.44,2.44,0,0,1-.1.24l-.11,0-.1.05c-.09-.06-.29.16-.38.16A.16.16,0,0,1,8.93,24s.19-.4.15-.44h0c0-.1,0-.2,0-.29s0,0,0,0L9.2,23h0a2.54,2.54,0,0,1,.14-.62c0-.14.05-.28.09-.41a.54.54,0,0,1,.05-.21c0-.08,0-.15.07-.23a1.5,1.5,0,0,1,.11-.36.76.76,0,0,0,0-.11,1.82,1.82,0,0,0,.12-.72c0-.13-.18-.2-.27-.28s-.32-.25-.48-.4l-.25-.23-.09,0-.21-.15-.24-.11L8,18.94c-.07,0-.21-.08-.27-.17S7.75,18.61,7.76,18.54Zm8.47-5.41c.17-.16.46,0,.62.1l0,0c.09,0,.06-.16.1-.21h0s.07-.06.06-.06h0v0l0,0a.36.36,0,0,0,.06.2c0,.13.11.24.1.39h0a.25.25,0,0,0,0,.07,1.21,1.21,0,0,0,.21.6s0,.07,0,.06l0,0a2.34,2.34,0,0,0,.09.24.14.14,0,0,0,0,.07v0s0,.08,0,.11,0,0,0,0h0a.38.38,0,0,0,.05.11l.09.27h0s.09.17.1.15a.4.4,0,0,0,.07.19l.07.18c.06.08.11.17.16.25s0,.07,0,.06a.28.28,0,0,0,0,.13l0,0a1,1,0,0,0,0,.17.4.4,0,0,1-.12.36l-.07,0h-.1a1,1,0,0,1-.35-.14s0,0,0,0-.07-.16-.12-.22h0a.75.75,0,0,0,0-.26s0-.08,0-.12,0-.09,0-.15,0,0,0,0,0-.07,0-.06l-.12-.26a.25.25,0,0,1,0-.09s-.09-.12-.07-.13h0a.56.56,0,0,1,0-.12l-.12-.2s0,0,0,0h0s0-.11,0-.11l-.11-.2a1.21,1.21,0,0,0-.05-.14,0,0,0,0,1,0,0s0,0,0,0,0-.14-.05-.18l0,0a.55.55,0,0,0-.1-.25v0s0,0,0,0h0a3.11,3.11,0,0,0-.41-.65l-.05-.08s0-.11,0-.1v0ZM19.46,13l.11-.09a.79.79,0,0,0,.26-.13h0l.41.16s0,0,0,0h0l.14.09a.35.35,0,0,1,.11.1s0,0,0,0,0,0,0,0h0s.08.13.06.15a.49.49,0,0,1,0,.27.63.63,0,0,0-.11.08l-.14.09,0,0s-.16.25-.17.23,0,.08,0,.13l-.05,0h0s0-.07,0-.05h0A.17.17,0,0,0,20,14l0,0s0,0,0,0h0l0-.2a.54.54,0,0,0,0-.28s0,0,0,0a1.4,1.4,0,0,0-.1-.16l-.19-.12-.09-.08C19.57,13.05,19.52,13.06,19.46,13Zm-2.07-1.76h0s0,0,0,0a.49.49,0,0,0-.05.19h0c0,.07,0,.18,0,.24s.42-.15.38-.36c0,0,0-.05,0-.08h0s0,0,0,0S17.48,11.14,17.39,11.21Zm.7.44h0c-.05.11-.22.28-.13.42l.08.09s.05,0,.06,0h0a.76.76,0,0,0,0-.11h0v0h0s0,0,0,0v0h0l.06-.19v0l0-.08C18.15,11.65,18.13,11.64,18.09,11.65Zm.21.59h0a1.39,1.39,0,0,1-.16.35h0c0,.05.06.09.08.13s.15-.23.12-.27a0,0,0,0,1,0,0h0a.41.41,0,0,0,0-.19s0,0,0,0,0,0,0,0v0h0ZM17,8.55c.27-.17.4,0,.59.24,0,.12.09.22.1.35s-.11.86,0,1.09c0,0,.07.17.12.19h.1l.05-.11a.31.31,0,0,1,.19-.09s.12,0,.17,0,.15.36.15.49-.11.22-.09.33.21.13.27.23c.29.2.25.53.31.86a1,1,0,0,0,0,.17.59.59,0,0,0,.05.19c.08.16.15-.09.15-.09v0s0-.15,0-.2a1.25,1.25,0,0,0-.15-.24s0,0,0-.05l0,0a.57.57,0,0,0,.13-.08c.15-.13.22-.3.4-.26,0,0,.06,0,.05,0a.54.54,0,0,1,.06.48.28.28,0,0,0,0,.09,1.09,1.09,0,0,0,0,.18,1,1,0,0,1-.05.25s0,.06,0,0l-.11.22h0a1,1,0,0,0-.07.15.5.5,0,0,0,0,.5l0,.26h0a3.66,3.66,0,0,1,0,.74.5.5,0,0,1-.11.17s-.14,0-.12,0c0-.17,0-.48-.07-.61s0,0,0,0,0-.07,0-.07a0,0,0,0,1,0,0s0,0,0,0,0-.08,0-.07-.22,0-.31.06-.06,0,0,.06-.09,0-.08,0l-.11-.13a.42.42,0,0,1,.05-.17h0l0,0h0l.09-.16h0c0-.08.09-.25,0-.32s-.1-.18-.09-.18,0,0,0,0-.16,0-.13,0c-.18.11,0,.27-.05.31v0h0a0,0,0,0,0,0,0s-.11.23-.12.21c-.11.16-.44.08-.49-.13v0h0v-.1h0v-.25a.66.66,0,0,0-.06-.25l0-.11c0-.1-.1-.2-.15-.31s0,0,0,0-.05-.21,0-.22-.2-.19-.28-.09-.05.1-.1.13a.55.55,0,0,1-.31.08s-.09,0-.08,0a.24.24,0,0,1,0-.26h0s0,0,0,0h0l0,0h0l0-.05h0s0,0,0,0,.05-.13.08-.19h0v0a.29.29,0,0,1,0-.09s0,0,0,0,0-.1,0-.09h0v0l.06-.36v0a.64.64,0,0,0,0-.07s-.08-.17-.08-.18h0l0-.06s0,0,0-.05h0l-.11-.16a.78.78,0,0,0-.05-.14s0-.08,0-.06v0c.09-.15.3,0,.41.06h0s0,0,0,0h0a.36.36,0,0,0-.11-.24l-.07,0h0a1,1,0,0,1-.08-.11.31.31,0,0,1-.15-.15s0,0,0,0h0c.07,0,.14-.09.22-.08s.18.22.27.12h0s0,0,0,0,0-.31,0-.27A6,6,0,0,0,17,8.78s0-.07,0-.06A1,1,0,0,1,17,8.55Zm-1.89,2.79a.22.22,0,0,1,.36,0c0,.05.12.07.17.1l.1.07h0s0,0,0,0a.69.69,0,0,1,.24.51s0,.17,0,.21.17.62.11.69a.4.4,0,0,1-.27-.2,2.71,2.71,0,0,1-.23-.41,2.88,2.88,0,0,0-.13-.31,2.8,2.8,0,0,0-.32-.52s0,0,0,0A.5.5,0,0,1,15.09,11.34Zm14.6-6.73c-.09.11-.15.23-.23.35l-.11.13s0,.06,0,.06a.31.31,0,0,0,0,.1c0,.07.09.14.14.21s0,.17,0,.25a1.54,1.54,0,0,0,0,.42S29.7,6,29.68,6a.34.34,0,0,1,0-.1h0s0,0,0,0,0,0,0,0,0,0,0,0a3.22,3.22,0,0,1,.08-.76,1.47,1.47,0,0,0,.07-.33s0,0,0,0,0,0,0,0,0-.08,0-.08Zm.23-.87.34-.09c.14,0,.6.13.63.33,0,0,0,0,0,0V4a.4.4,0,0,1,0,.24,2.49,2.49,0,0,1-.23.31,1.19,1.19,0,0,0-.08.2L30.48,5a1.91,1.91,0,0,0-.18.69s0,.09,0,.09,0,0,0,0,0,.13,0,.2a1.94,1.94,0,0,0-.07.33l0,.23s0,.12,0,.12,0,.11-.07.17a1.16,1.16,0,0,1-.2.24c0,.07-.09.16-.13.23l-.09.12a1.35,1.35,0,0,0,0,.6s0,.08,0,.08h.1l0,0h0s0,0,0,0h0S30,8,30,8c.19-.1.33.22.38.21h0a.1.1,0,0,1,0,0h0s0,0,0,0,0,.11,0,.11,0,.27,0,.27a1.74,1.74,0,0,0-.1.19,1.22,1.22,0,0,0-.24.57s0,.09,0,.1,0,0,0,0a1.27,1.27,0,0,0,0,.2l.09,0,.12,0h0s0,0,0,0,0,0,0,0h0l.06-.1h0s.09,0,.08,0l.14-.07L31,9.36s.1,0,.12,0,.07.06.09.06a1.54,1.54,0,0,1,.23.18h0s0,0,0,0h0c0,.2.12.1.13.15,0,.32-.34.32-.53.37l-.34.11-.13.08c-.08,0-.16.08-.22.12l-.07.08-.08,0c-.17.1-.5.34-.68.2a.74.74,0,0,1-.13-.21.54.54,0,0,1-.17-.26c0-.12.06-.22,0-.3h0a.67.67,0,0,0,0-.63c-.07-.08-.18-.08-.22-.22s.1-.2.08-.31h0l.05,0h0a1.34,1.34,0,0,1,0-.19s0,0,0,0v0s0,0,0,0,0,0,0,0,0,0,0,0h0a1,1,0,0,0-.06-.39s0,0,0,0,0-.08,0-.08C29,7.9,29,7.72,29,7.56c0,0,0-.09,0-.09v0s0,0,0,0a.37.37,0,0,0,0-.18s0-.08,0-.11,0,0,0-.08l0-.19-.1,0v0a.76.76,0,0,0,0,.15,2.51,2.51,0,0,0,0,.27h0s-.07.14-.08.11,0,0,0,0-.2-.21-.3-.33a1.94,1.94,0,0,1-.21-.27,2,2,0,0,1-.08-.35s0,0,0,0c0-.18-.08-.35-.11-.53A1.15,1.15,0,0,1,28,5.55a.11.11,0,0,1,.06-.09c.1,0,.12.07.18.13l.09.08a2.66,2.66,0,0,1,.54.87l0,0s0,0,0,0h0c.11-.21.22-.26.25-.53a.28.28,0,0,0,0-.09s0,0,0,0l0-.14,0,0h0a0,0,0,0,1,0,0h0a0,0,0,0,0,0,0,.34.34,0,0,0,0-.13s0,0,0-.07,0-.08,0-.08h0l0,0s0,0,0,0l0,0,0,0,0,0a.65.65,0,0,1-.38.18l0,0c-.18-.27.14-.32.11-.5,0,0,0,0,0,0h0c.07,0,.28-.28.32-.35l.09-.15s0,0,0,0a1.27,1.27,0,0,1,.26-.33h0s.09-.11.09-.13,0,0,0,0L29.75,4A.71.71,0,0,0,29.92,3.74ZM27.23,5.89a.34.34,0,0,1,.31,0s0,0,0,0h0s0,0,0,0,0,0,0,0h0l.06,0h0a.72.72,0,0,1,.25.18.51.51,0,0,1,0,.25,2.83,2.83,0,0,1,0,.36s0,.24,0,.25,0,0,0,.06l0,0,0,.21a1.94,1.94,0,0,1,0,.24v.1s0,0,0,0a.28.28,0,0,1,0,.09h0s0,.08,0,.12S28,8,28,8c.28.09.05.3.08.49s-.06.31,0,.29,0,0,0,0h0v0s0,0,0-.06h0s0-.06,0-.07.08-.08.07-.13v0h0v0h0s0-.06,0-.07,0,0,0,0,0,0,0,0,0-.05,0-.05.13,0,.18,0,0,.23,0,.25,0,0,0,0h0s0,0,0,0a.45.45,0,0,0,0,.11c0,.09,0,.16,0,.23s-.06.3-.08.44,0,.11,0,.16h0v0s0,.3,0,.29,0,0,0,0-.07.25,0,.24,0,.15,0,.15a.5.5,0,0,0,0,.12v0s0,.19,0,.25h0s0,0,0,0a1,1,0,0,1,0,.17c-.08.39-.42.28-.67.36l0,0c-.08,0-.2,0-.22-.11l0-.2h0s0,0,0,0h0l0,0h0c0-.06,0-.28.06-.3V10.4l.06-.22s0,0,0,0,0-.05,0-.07a1,1,0,0,0,0-.29c0-.05,0-.1,0-.15s0,0,0,0,0-.15,0-.23a.64.64,0,0,1,0-.07.68.68,0,0,0,0-.14s0,0,0,0-.11.09-.15.16-.25.17-.44.06c0,0-.13-.06-.14-.13-.17-.14.35-.49.33-.6a1.09,1.09,0,0,0,.27-.41s0,0,0,0a3.19,3.19,0,0,0-.1-.68s0-.06,0-.07,0-.07,0-.07c0-.15-.06-.31-.08-.46s0,0,0,0h0a2.46,2.46,0,0,0-.31.44c-.15.21-.43.08-.6,0l-.17-.08a.69.69,0,0,1-.05-.13s0,0,0,0,0-.15.06-.16l.12-.14s0,0,0,0h0s.07,0,.07,0h0l.18-.21s.1-.16.15-.17,0-.09,0-.08h0s.12-.17.16-.18h0V6.08h0l.05,0h0c0-.06.08-.17.14-.18Zm16.25.55c.13.14.87.71.79.95s-.63.32-.85.43l-.3.17L43,8.1s-.12.09-.16.07c0,.15-.72.42-.81.66,0,0,0,.11,0,.12h0s0,0,0,0h.12s0,0,0,0,0,0,0,0h0s.07,0,.08,0,0,0,0,0V9h.07V9l0,0s0,0,0,0h.06a.22.22,0,0,1,.17,0h0s0,0,0,0h.08s0,0,0,0h.08s.15,0,.16,0h0a.43.43,0,0,1,.44.12s.08.1.14.14.07,0,.07.06h0v0s0,0,0,0h0s0,0,0,0l.11.1s0,0,0,0,0,0,0,0a.88.88,0,0,0,0,.16.35.35,0,0,1-.25.25l-.13,0h-.12a2.07,2.07,0,0,0-.22,0s-.1,0-.09,0a1.39,1.39,0,0,1-.52-.07l0,0h0c-.06-.06-.13,0-.19-.05s-.13,0-.13,0,0,0,0,0-.16,0-.15,0h0a1.08,1.08,0,0,1-.47.05l-.06,0h-.16a1,1,0,0,0-.34,0l-.15.06s0,0,0,0-1,.09-1,.24c0,0,0,0,0,0h0c-.06.1-.25,0-.27,0a.15.15,0,0,1,0-.06,1.25,1.25,0,0,1-.18-.24v0A1.11,1.11,0,0,1,39,9.43,1.46,1.46,0,0,1,38.87,9s0,0,0-.06,0,0,0,0,0,0,0,0,0-.06,0-.05v0l0,0v0h0s0-.05,0,0a.46.46,0,0,1,0-.14h0l0,0h.05s.11.05.17.08h.1l.1,0h.14l.17,0,.09.07H40l.07.06h0s0,0,0,0l.05,0h0s0,0,0,0h0s0,0,0,0,0,0,0,0,0,0,0,0h0s.07,0,.08,0h0l.05,0h0l0,0h0l0,0h.22l0,0c.07-.05.28-.12.31-.21h0v0l.13-.07a0,0,0,0,0,0,0h0l0,0,.06,0,0,0h0s0,0,0,0,.12,0,.14-.09h0s0,0,0,0l0-.05s0,0,0,0h0s.06-.05.08,0a.08.08,0,0,1,0,0A3.08,3.08,0,0,1,41.87,8s0,0,0,0l.06,0h0c0-.06.17-.07.18-.1s0,0,0-.06h0l0,0h0s0,0,0,0l0,0h0s0,0,0,0h0s0,0,0,0,0,0,0,0,0,0,0,0,0,0,0,0,0,0,0,0a1.51,1.51,0,0,1,.4-.26h0l.2-.18h0s0,0,0,0l.09-.09h0s0-.14,0-.17a1.15,1.15,0,0,0-.31,0L42.6,7s-.06,0-.05,0-.21,0-.32,0l-.11,0H42c-.29,0-.32-.14-.48-.4-.06-.08-.06-.23-.11-.3L41.31,6h0V6a.39.39,0,0,1,0-.26h0a.25.25,0,0,1,.19,0c.09,0,.15.13.23.18l.52.29s.11.07.11.06h0s0,0,0,0h0s.18.06.18.08H43c.08.06.2,0,.23,0s0,0,0,0,.17.07.17.05ZM53.9,10.76c0,.06.11.14.11.21a.76.76,0,0,1,0,.15,1,1,0,0,1,0,.16h0s0,0,0,0h0a1.16,1.16,0,0,0,0,.18,1,1,0,0,0,.05.39s-.07,0-.06,0a.69.69,0,0,1,0,.35s0,.05,0,0l-.08.12a1,1,0,0,0-.36.26s0,0,0,0l-.11.12c-.12,0-.25.21-.35.3l0,0s0,0,0,0a.15.15,0,0,0,0,.19s0,0,0,0h0l.56.12v0h0a0,0,0,0,1,0,0h0a1.18,1.18,0,0,0,.11.19l.06.09,0,.05c.13.08,0,.35.1.42l-.1.14s-.1,0-.14-.07h0a0,0,0,0,1,0,0,1.14,1.14,0,0,1-.33-.17l-.14,0h0L53,14c-.09-.05-.39,0-.45-.13s-.14-.07-.21-.08-.2.08-.3.11l0,0c-.11,0-.18.12-.29.19l-.18.05s0,0,0,0,0,0,0,0-.21.08-.33.09,0,0,0,0l0,0c-.07,0-.32.16-.38.07s0,0,0,0l-.12,0a0,0,0,0,1,0,0l0,0s-.11-.06-.14,0,0,0,0,0a1.06,1.06,0,0,1-.39-.13l-.13,0-.18-.11-.06,0c0-.1-.17-.13-.24-.2s-.09-.13-.14-.15-.05,0,0,0a.7.7,0,0,1-.13-.16s0-.06,0-.09l-.19-.26s0,0,0,0,0,0,0-.06,0,0,0,0,0,0,0,0,0,0,0,0h0s0,0,0,0,0,0,0,0l.1.05h0s0,0,0,0h0v0a0,0,0,0,1,0,0h0l.09,0h0l.19.1.11,0h0a.41.41,0,0,0,.05.09.13.13,0,0,0,0-.06h0s0,0,0,.06h0a.26.26,0,0,1,.11.07h0a.82.82,0,0,1,.27,0h.1s0,0,0,0h.08v0h.06s0,0,0,0h0s.35-.06.38,0l0,0h.12l.08,0s0,0,0,0h0s0-.05,0,0h0l0,0s0,0,0,0,0,0,0,0h0l.12,0s0,0,0,0v0h0a.38.38,0,0,0-.11-.08,2.68,2.68,0,0,0-.69-.13l0,0a.3.3,0,0,1-.24-.2s0,0,0,0,0-.08,0-.09,0,0,0,0,0-.1,0-.09,0-.06,0-.05h0a3.41,3.41,0,0,0-.11-.85l.07-.13a.26.26,0,0,1,.18.1s0,0,0,0,0,0,0,0h0s.11,0,.09,0h0l.1.12,0,0a0,0,0,0,1,0,0,0,0,0,0,0,0,0l.06,0h0l0,0h0s0,0,0,0,0,0,0,0,0,0,0,0v0h0v0h0a.45.45,0,0,1,.17.08h0c.09.08.26.1.33.19h0l.13,0h0l0,0a2.5,2.5,0,0,1,.25.09h0s.12.08.14.06a.59.59,0,0,0,.14.07h0c.05,0,.1,0,.16,0h0s0,0,0,0h0c.07-.13.23-.19.31-.29s0,0,.06,0h0a1.62,1.62,0,0,0,.1-.18l.07-.05a3.08,3.08,0,0,0,.45-.5c0-.06,0-.11.08-.16l.24-.32a.85.85,0,0,1,.09-.22c.06-.07.14-.11.21-.19l.08-.07ZM52.21,14c0,.1.15.32.06.43h0v0l-.06.3a1.85,1.85,0,0,1,0,.23,3.48,3.48,0,0,0,0,.57,1.21,1.21,0,0,0,.05.18v.15h0s0,0,0,0h0s0,.16,0,.19h0s0,0,0,0h0s0,0,0,0l0,.08h0l0,0v0s0,.05.05.05a.2.2,0,0,0,0,.09,1.27,1.27,0,0,0,0,.14,0,0,0,0,0,0,0h0s0,0,0,0a.11.11,0,0,0,0,.12s0,0,0,0a0,0,0,0,0,0,0h0c0,.12.12.21.17.32a.69.69,0,0,1,0,.16s-.13,0-.15,0a.54.54,0,0,1-.23-.18,1.44,1.44,0,0,1-.43-.24c-.15-.11-.34-.15-.47-.33s-.07-.27,0-.31a.79.79,0,0,1,0-.36c.15-.36.21-.78.35-1.16a1.62,1.62,0,0,1,.13-.33,1,1,0,0,1,.08-.35s0,0,0,0S52.17,14,52.21,14ZM61,21.37l-.18.08c-.09,0-.13.15-.09.24h0l.08,0h0C60.89,21.59,61,21.53,61,21.37Zm1.06-1,.06.25a1.24,1.24,0,0,1,0,.27v.19c0,.16-.13.18-.22.17s-.19-.1-.27,0a.52.52,0,0,0,.2.19,2.35,2.35,0,0,1,.33.3l.1.11s0,0,0,0,.15,0,.18.09h0s0,0,0,0h0v0h0s0,0,0,0,0,0,0,0,0,0,.06,0a.88.88,0,0,0,.05.15,1.6,1.6,0,0,0,0,.21v.11h0a.33.33,0,0,0,0,.17s0,.05,0,.07l0,0s0,0,0,0,0,0,0,0h-.06s0,.07,0,.07v0a.07.07,0,0,1,0,.05,1.14,1.14,0,0,1-.46.38.17.17,0,0,1-.16-.1s-.36-.28-.37-.3a.24.24,0,0,1-.16-.12c-.08,0-.38-.17-.44-.07a3,3,0,0,0-.06.33s0,.27-.07.25c-.19.19-.49-.25-.62-.15,0-.06-.23-.15-.22,0a1.28,1.28,0,0,0,.11.31.89.89,0,0,1,0,.51c0,.07,0,.13,0,.19a.26.26,0,0,1-.11.08h-.05c-.06,0-.28-.22-.31-.21s0,0-.05-.05l-.08-.05c0-.09-.16-.13-.15-.25a.13.13,0,0,1,0-.06l.15-.11.06-.07a.36.36,0,0,0,0-.18l0-.06h0c-.07-.1-.23,0-.31,0a.59.59,0,0,0,0,.08h0v0a1.19,1.19,0,0,0-.23.16l-.06.08-.32.23c0,.08-.2.17-.25.23a1.09,1.09,0,0,1-.06.11c-.05,0-.19.11-.16.19s0,0,0,0h0c0,.06-.11.12-.15.18s-.06,0-.1,0-.19.11-.3,0l-.06-.05-.07-.12s0,0,0,0-.06-.14-.09-.21-.07-.16,0-.18h0s0,0,0,0,0-.06,0,0a.07.07,0,0,0,0-.05c0-.12,0-.23-.06-.35h0s0,0,0,0h0s0,0,0,0-.08-.24-.05-.36h0s0,0,0-.05,0,0,0,0h0c0,.06,0,.12.05.18a.56.56,0,0,1,0,.12s.11.14.09.15h0s0,.07,0,.08h0l0,0h0s0,.06.06.05,0,0,0,0,0,0,0,0a0,0,0,0,1,0,0s0,0,0,0,0,0,0,0,0,0,0,0h0c.05-.05.21,0,.27,0l.35-.26.18-.14s0-.05.06,0,.13-.1.18-.16h0s0,0,0,0,.13-.19.15-.15l.15-.18s0,0,0,0l.07-.06a.24.24,0,0,0,0-.08h0l-.12-.08-.35-.19-.09,0a5.31,5.31,0,0,0-.64-.21l-.35-.13h0s0,0,0,0-.05-.05-.07-.09a1,1,0,0,1-.1-.44s0-.07,0-.06,0-.26,0-.28v0h0c0-.08,0-.2,0-.28h0c0-.08.06-.09.09-.14s0,0,0,0,0,0,0,0h0s0,0,0,0,0,0,0,0,0,0,0,0,0,0,0,0h0s0,0,0,0h0s0,0,0,0h0l0,0h0a0,0,0,0,1,0,0h0l.08.06h0s0,0,0,0h0v0h0s0,0,0,0h0s0,0,0,0,0,0,0,0l.06.05h0s0,0,0,0,0,0,0,0a0,0,0,0,0,0,0l.05.05s0,0,0,0h0s0,0,0,0v0s0,0,0,0,0,0,0,0,0,0,0,0h0a0,0,0,0,1,0,0h0c.1.07.19.16.29.24h0a.55.55,0,0,1,.18.16l0,0h0l.16.14h0s0,0,0,0,0,0,0,0,.2.12.2.13l0,0h0s0,0,0,0l0,0h0l0,0h0s0,0,0,0l0,0s0,0,0,0h0s.06.07,0,.08,0,0,0,0a0,0,0,0,1,0,0s0,0,0,0h0l.06.05.15.1v0h0l.1.09h.4l.07,0s0,0,0,0,0,0,0,0h0l.15,0s0,0,0,0,.15-.05.11-.15l0-.06a.57.57,0,0,0-.23-.15l-.1-.09L59.68,22s0-.05-.06,0l0,0c-.07-.14-.27-.13-.35-.3l-.07-.06-.06-.21v0a.27.27,0,0,1,0-.25h0s0,0,0,0a.59.59,0,0,1,.2.06s.06.12,0,.12h0l0,0s0,0,0,0,.19.18.22.16h0s0,.05,0,0h0s0,0,0,0h0l.19.15v0h0l.33.24h0l.2.18h0v0s0,0,0,0,.09.12.11.11h0a.59.59,0,0,0,.39,0s0,0,0,0h0s.09,0,.1,0l0,0s.1.05.09,0,0,0,0,0h0s0,0,0,0l.1,0,.06,0,.09,0h.07s0,0,.05,0,0,0,0,0,0,0,0,0h0c0-.05.13-.06.16-.15a.36.36,0,0,0,0-.18,2.13,2.13,0,0,0-.43-.42.11.11,0,0,0-.11,0h0a.12.12,0,0,1,0,.07,1.2,1.2,0,0,1-.24.41l-.1,0,0,0-.2,0c-.06,0-.2-.12-.24-.09l-.08-.16a.76.76,0,0,1-.09-.69.52.52,0,0,1,.17-.16,0,0,0,0,1,0,0s0,0,0,0h0s.1-.06.11,0,0,0,0,0,0,0,0,0h0s0,0,.06,0,0,0,0,0,0,0,0,0h0s0,0,0,0,0,0,0,0h0s0,0,0,0a.19.19,0,0,0,.15,0h0a.61.61,0,0,0,0-.11l-.06,0-.18-.06-.13-.07,0,0-.15.19a.12.12,0,0,1-.06.1l0,.1c0,.12-.17.29-.3.27s0,0,0,0c-.21-.16,0-.55-.13-.7s0,0,0,0l-.06.08c-.08,0-.2.22-.26.07s0-.24,0-.35l0-.11s.07-.16.08-.13l.06-.13v0a2.26,2.26,0,0,1,.11-.22,1.26,1.26,0,0,0,.13-.23s0-.05,0,0,.16-.6.29-.31a.45.45,0,0,0,0,.11h0a1.43,1.43,0,0,1,0,.26h.06a.93.93,0,0,0,0,.13c0,.08-.07.19,0,.26h.05s0,0,0,0a.24.24,0,0,1,.08-.13.14.14,0,0,1,.05-.11s0-.07,0-.11.09-.21.13-.24a1.35,1.35,0,0,1,.07-.37c0-.14,0-.34.18-.33s0,0,0,0,0,0,0,0,0,.47.06.54h0a.41.41,0,0,1,0,.19s-.06.1,0,.16h0s0,.15,0,.15l-.09.26s0,.09,0,.14,0,.06-.06.12a.43.43,0,0,0,0,.11s.15,0,.18.05h0c.06,0,.12.05.17,0s0,0,0,0,0,0,0,0,0,0,0,0,0-.12,0-.18,0-.27,0-.32.08,0,.11-.07,0,0,0,0a.76.76,0,0,0,.08.21l.05.06h0s0,0,0,0,0,.28.15.31.06,0,.07,0h0s.07,0,.08,0h0l0,0s0,0,0,0l.12-.08s0,0,0,0l0,0ZM9.59,18a1.24,1.24,0,0,1,.18-.21.91.91,0,0,1,.49,0l.09,0a1,1,0,0,1,.19.17.75.75,0,0,0,.07.12.86.86,0,0,0,0,.25l0,0s0,0,0,0-.07.44-.23.37c0,0,0,0,0,0l-.09-.07s0,0,0,0-.16-.19-.14-.21L10,18.32l-.34-.08s-.06,0,0,0a.28.28,0,0,1,0-.18v0Z" />
    </g>
  </g>
</svg>